<svg width="81" height="80" viewBox="0 0 81 80" fill="none" xmlns="http://www.w3.org/2000/svg">
<rect width="81" height="80" rx="15" fill="#1B76FF"/>
<path d="M28.904 53.576C26.888 53.576 25.016 53.264 23.288 52.64C21.584 51.992 20.096 51.08 18.824 49.904C17.576 48.728 16.604 47.336 15.908 45.728C15.212 44.12 14.864 42.344 14.864 40.4C14.864 38.456 15.212 36.68 15.908 35.072C16.604 33.464 17.576 32.072 18.824 30.896C20.096 29.72 21.584 28.82 23.288 28.196C25.016 27.548 26.888 27.224 28.904 27.224C31.376 27.224 33.56 27.656 35.456 28.52C37.376 29.384 38.96 30.632 40.208 32.264L34.844 37.052C34.1 36.116 33.272 35.396 32.36 34.892C31.472 34.364 30.464 34.1 29.336 34.1C28.448 34.1 27.644 34.244 26.924 34.532C26.204 34.82 25.58 35.24 25.052 35.792C24.548 36.344 24.152 37.016 23.864 37.808C23.576 38.576 23.432 39.44 23.432 40.4C23.432 41.36 23.576 42.236 23.864 43.028C24.152 43.796 24.548 44.456 25.052 45.008C25.58 45.56 26.204 45.98 26.924 46.268C27.644 46.556 28.448 46.7 29.336 46.7C30.464 46.7 31.472 46.448 32.36 45.944C33.272 45.416 34.1 44.684 34.844 43.748L40.208 48.536C38.96 50.144 37.376 51.392 35.456 52.28C33.56 53.144 31.376 53.576 28.904 53.576ZM42.775 53V27.8H55.555C58.675 27.8 61.087 28.376 62.791 29.528C64.519 30.68 65.383 32.3 65.383 34.388C65.383 36.428 64.591 38.048 63.007 39.248C61.423 40.424 59.287 41.012 56.599 41.012L57.319 39.068C60.175 39.068 62.419 39.632 64.051 40.76C65.683 41.888 66.499 43.532 66.499 45.692C66.499 47.924 65.611 49.7 63.835 51.02C62.059 52.34 59.527 53 56.239 53H42.775ZM51.127 47.06H55.843C56.539 47.06 57.055 46.892 57.391 46.556C57.751 46.196 57.931 45.692 57.931 45.044C57.931 44.396 57.751 43.916 57.391 43.604C57.055 43.268 56.539 43.1 55.843 43.1H51.127V47.06ZM51.127 37.484H54.727C55.447 37.484 55.975 37.328 56.311 37.016C56.647 36.704 56.815 36.248 56.815 35.648C56.815 35.024 56.647 34.556 56.311 34.244C55.975 33.908 55.447 33.74 54.727 33.74H51.127V37.484Z" fill="white"/>
</svg>
