<svg width="215" height="241" viewBox="0 0 215 241" fill="none" xmlns="http://www.w3.org/2000/svg">
<path fill-rule="evenodd" clip-rule="evenodd" d="M167 59.9979C167 93.1371 140.36 120 107.5 120C74.64 120 48 93.1371 48 59.9979C48 26.8629 74.64 0 107.5 0C140.36 0 167 26.8629 167 59.9979" fill="#CFCFCF"/>
<path fill-rule="evenodd" clip-rule="evenodd" d="M214.996 227.614V347.054C214.996 350.221 213.74 353.265 211.497 355.501C209.261 357.744 206.218 359 203.05 359H11.9458C8.77835 359 5.73497 357.744 3.49938 355.501C1.2558 353.265 0 350.221 0 347.054V227.614C0 181.434 37.4325 144 83.6125 144H131.388C177.566 144 215 181.433 215 227.614H214.996Z" fill="#CFCFCF"/>
</svg>
