<svg width="292" height="290" viewBox="0 0 292 290" fill="none" xmlns="http://www.w3.org/2000/svg">
<path d="M229.748 93.7577L145.992 39.6637L62.2362 93.7577L145.992 147.852L229.748 93.7577ZM129.42 30.0821L108.346 18.4221L24.8296 70.7326L46.3854 83.7132L129.418 30.0922L129.42 30.0821ZM46.8665 104.115L27.7056 118.31L112.106 171.974L130.89 158.385L46.8628 104.121L46.8665 104.115ZM137.44 174.721L117.458 189.184L117.449 189.165C114.705 191.147 110.905 191.38 107.874 189.451L54.2562 155.355V218.717L137.448 266.678V174.72L137.44 174.721ZM141.205 288.536L41.4138 231.004C38.6864 229.424 37.1584 226.566 37.1584 223.631H37.1397V144.475L8.46584 126.234C7.46383 125.671 6.56161 124.887 5.83815 123.903C3.0317 120.127 3.82583 114.788 7.60933 111.993L31.2231 94.4934L4.12296 78.1812L4.13127 78.1625C3.02325 77.5024 2.04823 76.5724 1.31439 75.4037C-1.19898 71.4221 0.000523015 66.1638 3.98779 63.6544L103.529 1.3073C106.077 -0.291128 109.403 -0.486268 112.218 1.0748L145.998 19.7704L179.777 1.0748C182.594 -0.488341 185.921 -0.291128 188.467 1.3073L288.013 63.6544C292 66.1641 293.198 71.4222 290.687 75.4037C289.953 76.5641 288.98 77.492 287.87 78.1625L287.878 78.1812L260.778 94.4934L284.392 111.993C288.173 114.787 288.969 120.127 286.163 123.903C285.439 124.884 284.535 125.661 283.535 126.234L254.861 144.475V223.631H254.843C254.843 226.568 253.315 229.424 250.587 231.004L150.796 288.536C149.428 289.464 147.784 290 146.004 290C144.233 290 142.581 289.456 141.213 288.536H141.205ZM161.097 158.385L179.882 171.973L264.282 118.31L245.121 104.115L161.094 158.379L161.097 158.385ZM245.609 83.7084L267.165 70.7278L183.648 18.4173L162.575 30.0773L245.607 83.6983L245.609 83.7084ZM237.759 155.355L184.141 189.452C181.11 191.38 177.31 191.156 174.566 189.165L174.558 189.184L154.576 174.721V266.68L237.768 218.718V155.356L237.759 155.355Z" fill="black" fill-opacity="0.19"/>
</svg>
