<svg width="1920" height="714" viewBox="0 0 1920 714" fill="none" xmlns="http://www.w3.org/2000/svg">
<g clip-path="url(#clip0_63_128)">
<rect width="1920" height="714" fill="#3378D3"/>
<path d="M-73.5794 53.6L176.948 98.7052C223.422 107.058 274.137 136.339 304.608 172.41L487.932 388.912C503.535 407.241 525.039 423.435 548.256 435.401C517.639 284.631 425.33 147.227 281.799 64.3597C141.36 -16.7229 -19.8951 -29.4651 -163.245 16.0093C-135.595 34.2998 -103.93 48.103 -73.5685 53.6088L-73.5794 53.6Z" fill="white" fill-opacity="0.2"/>
<path d="M-219.906 307.044L30.6213 352.15C77.0949 360.503 127.811 389.783 158.281 425.854L341.605 642.357C370.25 676.298 419.038 703.026 461.589 708.226L531.855 716.693C546.424 672.194 555.142 626.648 558.086 581.18L536.327 578.476C493.775 573.276 444.99 546.549 416.343 512.606L233.019 296.104C202.548 260.033 151.751 230.893 105.359 222.399L-145.168 177.294C-203.825 166.749 -267.525 125.481 -295.954 79.6541L-296.583 78.5775C-333.646 102.38 -368.058 130.93 -398.978 163.66L-370.796 208.981C-342.272 255.226 -278.572 296.494 -219.906 307.045L-219.906 307.044Z" fill="white" fill-opacity="0.2"/>
<path d="M389.972 831.886C347.42 826.686 298.635 799.958 269.988 766.016L86.6638 549.514C56.1932 513.443 5.39624 484.303 -40.9961 475.809L-291.524 430.704C-350.18 420.159 -413.88 378.89 -442.309 333.064L-479.361 273.289C-510.448 328.692 -530.938 387.174 -541.536 446.527L-524.093 474.713C-495.535 520.614 -431.965 561.808 -373.308 572.353L-122.78 617.458C-76.3068 625.811 -25.5911 655.092 4.87954 691.163L188.204 907.665C216.848 941.606 265.636 968.335 308.187 973.535L350.127 978.557C397.267 941.028 438.908 895.297 472.884 841.735L389.972 831.886Z" fill="white" fill-opacity="0.2"/>
<path d="M-66.4829 815.13C-96.9536 779.059 -147.751 749.919 -194.143 741.425L-444.67 696.32C-476.825 690.492 -510.356 675.261 -539.007 655.304C-524.924 724.413 -497.59 790.776 -458.435 850.327L-275.996 883.194C-229.523 891.547 -178.807 920.828 -148.336 956.899L-28.3869 1098.63C38.8188 1102.45 106.054 1094.1 169.743 1074.2C149.412 1062.82 130.678 1048.05 116.708 1031.55L-66.4829 815.13Z" fill="white" fill-opacity="0.2"/>
</g>
<defs>
<clipPath id="clip0_63_128">
<rect width="1920" height="714" fill="white"/>
</clipPath>
</defs>
</svg>
