<svg width="390" height="263" viewBox="0 0 390 263" fill="none" xmlns="http://www.w3.org/2000/svg">
<path d="M125.744 87.6414L250.418 42.7714C273.542 34.4414 304.024 34.4414 327.148 42.7714L466.136 92.6557C477.94 96.8574 491.848 98.5605 505.429 97.912C452.387 37.9153 375.014 0 288.745 0C204.334 0 128.325 36.2247 75.5405 94.0325C92.7649 95.0815 110.632 93.0625 125.751 87.6426L125.744 87.6414Z" fill="#CFCFCF" fill-opacity="0.1"/>
<path d="M125.744 239.976L250.418 195.106C273.541 186.776 304.024 186.776 327.148 195.106L466.136 244.99C487.882 252.835 516.831 252.186 537.366 243.456L571.245 228.985C566.231 205.133 558.307 182.333 547.801 161.07L537.288 165.515C516.753 174.245 487.805 174.894 466.057 167.049L327.07 117.164C303.946 108.834 273.463 108.919 250.339 117.164L125.665 162.034C96.4792 172.547 57.0234 170.522 32.2811 157.263L31.7172 156.942C21.2047 177.318 13.1226 199.144 7.70264 221.945L32.2023 235.041C57.0961 248.464 96.552 250.488 125.744 239.976L125.744 239.976Z" fill="#CFCFCF" fill-opacity="0.1"/>
<path d="M537.267 317.839C516.732 326.569 487.784 327.218 466.036 319.373L327.048 269.489C303.925 261.159 273.442 261.243 250.318 269.489L125.644 314.359C96.4581 324.871 57.0022 322.847 32.26 309.588L0 292.285C0.406066 325.351 6.38991 357.046 17.0598 386.56L32.2586 394.727C57.0787 407.986 96.4566 410.011 125.643 399.498L250.317 354.628C273.441 346.298 303.923 346.298 327.047 354.628L466.035 404.512C487.781 412.357 516.73 411.709 537.265 402.978L557.479 394.327C568.961 365.14 575.831 333.688 577.206 300.7L537.267 317.839Z" fill="#CFCFCF" fill-opacity="0.1"/>
</svg>
