<svg width="798" height="142" viewBox="0 0 798 142" fill="none" xmlns="http://www.w3.org/2000/svg">
<path d="M187.089 47.576C184.497 47.576 182.081 47.16 179.841 46.328C177.633 45.464 175.713 44.248 174.081 42.68C172.449 41.112 171.169 39.272 170.241 37.16C169.345 35.048 168.897 32.728 168.897 30.2C168.897 27.672 169.345 25.352 170.241 23.24C171.169 21.128 172.449 19.288 174.081 17.72C175.745 16.152 177.681 14.952 179.889 14.12C182.097 13.256 184.513 12.824 187.137 12.824C190.049 12.824 192.673 13.336 195.009 14.36C197.377 15.352 199.361 16.824 200.961 18.776L195.969 23.384C194.817 22.072 193.537 21.096 192.129 20.456C190.721 19.784 189.185 19.448 187.521 19.448C185.953 19.448 184.513 19.704 183.201 20.216C181.889 20.728 180.753 21.464 179.793 22.424C178.833 23.384 178.081 24.52 177.537 25.832C177.025 27.144 176.769 28.6 176.769 30.2C176.769 31.8 177.025 33.256 177.537 34.568C178.081 35.88 178.833 37.016 179.793 37.976C180.753 38.936 181.889 39.672 183.201 40.184C184.513 40.696 185.953 40.952 187.521 40.952C189.185 40.952 190.721 40.632 192.129 39.992C193.537 39.32 194.817 38.312 195.969 36.968L200.961 41.576C199.361 43.528 197.377 45.016 195.009 46.04C192.673 47.064 190.033 47.576 187.089 47.576ZM206.03 47V13.4H220.574C223.582 13.4 226.174 13.896 228.35 14.888C230.526 15.848 232.206 17.24 233.39 19.064C234.574 20.888 235.166 23.064 235.166 25.592C235.166 28.088 234.574 30.248 233.39 32.072C232.206 33.896 230.526 35.304 228.35 36.296C226.174 37.256 223.582 37.736 220.574 37.736H210.35L213.806 34.232V47H206.03ZM213.806 35.096L210.35 31.4H220.142C222.542 31.4 224.334 30.888 225.518 29.864C226.702 28.84 227.294 27.416 227.294 25.592C227.294 23.736 226.702 22.296 225.518 21.272C224.334 20.248 222.542 19.736 220.142 19.736H210.35L213.806 16.04V35.096ZM247.447 26.936H263.623V32.984H247.447V26.936ZM248.023 40.76H266.311V47H240.295V13.4H265.687V19.64H248.023V40.76ZM294.864 43.544V19.736H283.344L283.2 24.632C283.104 26.712 282.96 28.68 282.768 30.536C282.608 32.392 282.352 34.088 282 35.624C281.648 37.128 281.184 38.408 280.608 39.464C280.064 40.52 279.376 41.272 278.544 41.72L270.24 40.664C271.392 40.696 272.336 40.296 273.072 39.464C273.84 38.632 274.448 37.464 274.896 35.96C275.344 34.424 275.664 32.632 275.856 30.584C276.08 28.536 276.24 26.312 276.336 23.912L276.72 13.4H302.544V43.544H294.864ZM269.136 53.96L269.184 40.664H307.248V53.96H300.048V47H276.336V53.96H269.136ZM335.523 13.4H343.299V47H335.523V13.4ZM320.259 47H312.483V13.4H320.259V47ZM336.099 33.224H319.683V26.648H336.099V33.224ZM370.869 47V36.392L372.789 38.072H363.573C360.661 38.072 358.149 37.592 356.037 36.632C353.925 35.672 352.309 34.28 351.189 32.456C350.069 30.632 349.509 28.456 349.509 25.928C349.509 23.304 350.101 21.064 351.285 19.208C352.501 17.32 354.197 15.88 356.373 14.888C358.549 13.896 361.109 13.4 364.053 13.4H378.549V47H370.869ZM349.605 47L357.957 34.952H365.829L357.813 47H349.605ZM370.869 33.896V17.72L372.789 19.736H364.245C362.037 19.736 360.341 20.248 359.157 21.272C358.005 22.296 357.429 23.816 357.429 25.832C357.429 27.784 357.989 29.288 359.109 30.344C360.229 31.4 361.877 31.928 364.053 31.928H372.789L370.869 33.896ZM406.119 47V36.392L408.039 38.072H398.823C395.911 38.072 393.399 37.592 391.287 36.632C389.175 35.672 387.559 34.28 386.439 32.456C385.319 30.632 384.759 28.456 384.759 25.928C384.759 23.304 385.351 21.064 386.535 19.208C387.751 17.32 389.447 15.88 391.623 14.888C393.799 13.896 396.359 13.4 399.303 13.4H413.799V47H406.119ZM384.855 47L393.207 34.952H401.079L393.063 47H384.855ZM406.119 33.896V17.72L408.039 19.736H399.495C397.287 19.736 395.591 20.248 394.407 21.272C393.255 22.296 392.679 23.816 392.679 25.832C392.679 27.784 393.239 29.288 394.359 30.344C395.479 31.4 397.127 31.928 399.303 31.928H408.039L406.119 33.896ZM435.811 47V13.4H451.459C455.363 13.4 458.403 14.152 460.579 15.656C462.755 17.16 463.843 19.304 463.843 22.088C463.843 24.84 462.819 26.984 460.771 28.52C458.723 30.024 456.003 30.776 452.611 30.776L453.523 28.76C457.299 28.76 460.227 29.512 462.307 31.016C464.387 32.52 465.427 34.696 465.427 37.544C465.427 40.488 464.307 42.808 462.067 44.504C459.859 46.168 456.627 47 452.371 47H435.811ZM443.539 41.24H452.083C453.875 41.24 455.235 40.888 456.163 40.184C457.091 39.48 457.555 38.392 457.555 36.92C457.555 35.512 457.091 34.472 456.163 33.8C455.235 33.096 453.875 32.744 452.083 32.744H443.539V41.24ZM443.539 27.32H450.787C452.483 27.32 453.763 26.984 454.627 26.312C455.491 25.608 455.923 24.584 455.923 23.24C455.923 21.896 455.491 20.888 454.627 20.216C453.763 19.512 452.483 19.16 450.787 19.16H443.539V27.32ZM487.656 47.576C485 47.576 482.536 47.144 480.264 46.28C478.024 45.416 476.072 44.2 474.408 42.632C472.776 41.064 471.496 39.224 470.568 37.112C469.672 35 469.224 32.696 469.224 30.2C469.224 27.704 469.672 25.4 470.568 23.288C471.496 21.176 472.792 19.336 474.456 17.768C476.12 16.2 478.072 14.984 480.312 14.12C482.552 13.256 484.984 12.824 487.608 12.824C490.264 12.824 492.696 13.256 494.904 14.12C497.144 14.984 499.08 16.2 500.712 17.768C502.376 19.336 503.672 21.176 504.6 23.288C505.528 25.368 505.992 27.672 505.992 30.2C505.992 32.696 505.528 35.016 504.6 37.16C503.672 39.272 502.376 41.112 500.712 42.68C499.08 44.216 497.144 45.416 494.904 46.28C492.696 47.144 490.28 47.576 487.656 47.576ZM487.608 40.952C489.112 40.952 490.488 40.696 491.736 40.184C493.016 39.672 494.136 38.936 495.096 37.976C496.056 37.016 496.792 35.88 497.304 34.568C497.848 33.256 498.12 31.8 498.12 30.2C498.12 28.6 497.848 27.144 497.304 25.832C496.792 24.52 496.056 23.384 495.096 22.424C494.168 21.464 493.064 20.728 491.784 20.216C490.504 19.704 489.112 19.448 487.608 19.448C486.104 19.448 484.712 19.704 483.432 20.216C482.184 20.728 481.08 21.464 480.12 22.424C479.16 23.384 478.408 24.52 477.864 25.832C477.352 27.144 477.096 28.6 477.096 30.2C477.096 31.768 477.352 33.224 477.864 34.568C478.408 35.88 479.144 37.016 480.072 37.976C481.032 38.936 482.152 39.672 483.432 40.184C484.712 40.696 486.104 40.952 487.608 40.952ZM511.381 47.528C510.805 47.528 510.197 47.48 509.557 47.384C508.949 47.288 508.277 47.16 507.541 47L508.021 40.424C508.469 40.552 508.933 40.616 509.413 40.616C510.725 40.616 511.749 40.088 512.485 39.032C513.221 37.944 513.749 36.392 514.069 34.376C514.389 32.36 514.597 29.912 514.693 27.032L515.173 13.4H540.997V47H533.317V17.96L535.093 19.736H520.261L521.845 17.864L521.557 26.744C521.461 30.04 521.237 32.968 520.885 35.528C520.533 38.088 519.989 40.264 519.253 42.056C518.517 43.848 517.509 45.208 516.229 46.136C514.949 47.064 513.333 47.528 511.381 47.528ZM549.389 47V13.4H573.101L573.053 19.736H555.293L557.069 17.96L557.117 47H549.389ZM567.488 47L582.464 13.4H590.144L605.168 47H597.008L584.72 17.336H587.792L575.456 47H567.488ZM574.976 39.8L577.04 33.896H594.32L596.432 39.8H574.976Z" fill="#F5F5F5"/>
<path d="M32.5938 22.7172L64.91 11.0866C70.9038 8.92742 78.8051 8.92742 84.7989 11.0866L120.825 24.0169C123.885 25.106 127.49 25.5475 131.01 25.3794C117.261 9.82788 97.206 0 74.8445 0C52.9647 0 33.2629 9.38964 19.5807 24.3738C24.0454 24.6457 28.6766 24.1223 32.5956 22.7175L32.5938 22.7172Z" fill="#F5F5F5"/>
<path d="M32.5936 62.2029L64.9099 50.5723C70.9037 48.4131 78.805 48.4131 84.7988 50.5723L120.825 63.5026C126.462 65.5361 133.966 65.368 139.289 63.105L148.07 59.354C146.771 53.1716 144.717 47.2616 141.993 41.7502L139.268 42.9021C133.946 45.1651 126.442 45.3332 120.805 43.2998L84.7785 30.3695C78.7847 28.2103 70.8834 28.2322 64.8896 30.3695L32.5733 42C25.0081 44.725 14.7809 44.2002 8.3676 40.7633L8.22142 40.68C5.49651 45.9616 3.4016 51.619 1.9967 57.5293L8.34716 60.9238C14.7998 64.403 25.027 64.9277 32.5937 62.2029L32.5936 62.2029Z" fill="#F5F5F5"/>
<path d="M139.263 82.3855C133.94 84.6485 126.437 84.8166 120.799 82.7832L84.7731 69.8529C78.7792 67.6937 70.878 67.7156 64.8842 69.8529L32.5679 81.4834C25.0027 84.2084 14.7755 83.6836 8.36217 80.2467L0.000183105 75.7618C0.105438 84.3326 1.65649 92.5483 4.42218 100.198L8.36179 102.315C14.7953 105.752 25.0023 106.277 32.5675 103.552L64.8838 91.9214C70.8776 89.7622 78.7789 89.7622 84.7727 91.9214L120.799 104.852C126.436 106.885 133.94 106.717 139.263 104.454L144.502 102.212C147.478 94.6464 149.259 86.4936 149.615 77.943L139.263 82.3855Z" fill="#F5F5F5"/>
<path d="M84.7966 111.221C78.8028 109.062 70.9015 109.084 64.9077 111.221L32.5915 122.852C28.4411 124.34 23.4956 124.822 18.8015 124.423C25.1093 131.548 32.7801 137.459 41.3726 141.775L64.9073 133.308C70.9011 131.149 78.8024 131.149 84.7962 133.308L108.373 141.777C116.484 137.689 123.777 132.178 129.876 125.556C126.733 125.598 123.548 125.136 120.802 124.151L84.7966 111.221Z" fill="#F5F5F5"/>
<path d="M179.745 102.24C178.145 102.24 176.655 101.97 175.275 101.43C173.915 100.89 172.735 100.14 171.735 99.18C170.735 98.2 169.955 97.06 169.395 95.76C168.835 94.46 168.555 93.04 168.555 91.5C168.555 89.96 168.835 88.54 169.395 87.24C169.955 85.94 170.735 84.81 171.735 83.85C172.735 82.87 173.915 82.11 175.275 81.57C176.635 81.03 178.125 80.76 179.745 80.76C181.345 80.76 182.815 81.03 184.155 81.57C185.515 82.09 186.695 82.84 187.695 83.82C188.715 84.78 189.495 85.91 190.035 87.21C190.595 88.51 190.875 89.94 190.875 91.5C190.875 93.06 190.595 94.49 190.035 95.79C189.495 97.09 188.715 98.23 187.695 99.21C186.695 100.17 185.515 100.92 184.155 101.46C182.815 101.98 181.345 102.24 179.745 102.24ZM179.745 99.57C180.905 99.57 181.975 99.37 182.955 98.97C183.955 98.57 184.815 98.01 185.535 97.29C186.275 96.55 186.845 95.69 187.245 94.71C187.665 93.73 187.875 92.66 187.875 91.5C187.875 90.34 187.665 89.27 187.245 88.29C186.845 87.31 186.275 86.46 185.535 85.74C184.815 85 183.955 84.43 182.955 84.03C181.975 83.63 180.905 83.43 179.745 83.43C178.565 83.43 177.475 83.63 176.475 84.03C175.495 84.43 174.635 85 173.895 85.74C173.155 86.46 172.575 87.31 172.155 88.29C171.755 89.27 171.555 90.34 171.555 91.5C171.555 92.66 171.755 93.73 172.155 94.71C172.575 95.69 173.155 96.55 173.895 97.29C174.635 98.01 175.495 98.57 176.475 98.97C177.475 99.37 178.565 99.57 179.745 99.57ZM195.245 102V86.1H209.975V102H207.095V87.9L207.785 88.62H197.435L198.125 87.9V102H195.245ZM218.698 102V87.87L219.418 88.62H212.878V86.1H227.398V88.62H220.888L221.578 87.87V102H218.698ZM236.45 102.18C234.85 102.18 233.43 101.83 232.19 101.13C230.95 100.43 229.97 99.47 229.25 98.25C228.53 97.01 228.17 95.61 228.17 94.05C228.17 92.47 228.53 91.07 229.25 89.85C229.97 88.63 230.95 87.68 232.19 87C233.43 86.3 234.85 85.95 236.45 85.95C238.03 85.95 239.44 86.3 240.68 87C241.94 87.68 242.92 88.63 243.62 89.85C244.34 91.05 244.7 92.45 244.7 94.05C244.7 95.63 244.34 97.03 243.62 98.25C242.92 99.47 241.94 100.43 240.68 101.13C239.44 101.83 238.03 102.18 236.45 102.18ZM236.45 99.66C237.47 99.66 238.38 99.43 239.18 98.97C240 98.51 240.64 97.86 241.1 97.02C241.56 96.16 241.79 95.17 241.79 94.05C241.79 92.91 241.56 91.93 241.1 91.11C240.64 90.27 240 89.62 239.18 89.16C238.38 88.7 237.47 88.47 236.45 88.47C235.43 88.47 234.52 88.7 233.72 89.16C232.92 89.62 232.28 90.27 231.8 91.11C231.32 91.93 231.08 92.91 231.08 94.05C231.08 95.17 231.32 96.16 231.8 97.02C232.28 97.86 232.92 98.51 233.72 98.97C234.52 99.43 235.43 99.66 236.45 99.66ZM248.858 102V86.1H256.238C258.098 86.1 259.558 86.46 260.618 87.18C261.698 87.88 262.238 88.88 262.238 90.18C262.238 91.48 261.728 92.49 260.708 93.21C259.708 93.91 258.378 94.26 256.718 94.26L257.168 93.48C259.068 93.48 260.478 93.83 261.398 94.53C262.318 95.23 262.778 96.26 262.778 97.62C262.778 99 262.258 100.08 261.218 100.86C260.198 101.62 258.628 102 256.508 102H248.858ZM251.678 99.78H256.298C257.498 99.78 258.398 99.6 258.998 99.24C259.598 98.86 259.898 98.26 259.898 97.44C259.898 96.6 259.618 95.99 259.058 95.61C258.518 95.21 257.658 95.01 256.478 95.01H251.678V99.78ZM251.678 92.94H255.998C257.098 92.94 257.928 92.74 258.488 92.34C259.068 91.92 259.358 91.34 259.358 90.6C259.358 89.84 259.068 89.27 258.488 88.89C257.928 88.51 257.098 88.32 255.998 88.32H251.678V92.94ZM283.006 102V86.1H285.886V102H283.006ZM274.456 91.5C276.476 91.52 278.006 91.98 279.046 92.88C280.106 93.78 280.636 95.05 280.636 96.69C280.636 98.41 280.056 99.74 278.896 100.68C277.756 101.6 276.116 102.05 273.976 102.03L267.286 102V86.1H270.166V91.47L274.456 91.5ZM273.766 99.84C275.046 99.86 276.026 99.6 276.706 99.06C277.386 98.52 277.726 97.72 277.726 96.66C277.726 95.62 277.386 94.86 276.706 94.38C276.046 93.9 275.066 93.65 273.766 93.63L270.166 93.57V99.81L273.766 99.84ZM291.485 102V86.1H294.365V97.68L304.115 86.1H306.725V102H303.845V90.42L294.125 102H291.485ZM298.925 84.03C297.465 84.03 296.315 83.68 295.475 82.98C294.655 82.26 294.235 81.23 294.215 79.89H296.165C296.185 80.65 296.435 81.25 296.915 81.69C297.415 82.13 298.075 82.35 298.895 82.35C299.715 82.35 300.375 82.13 300.875 81.69C301.375 81.25 301.635 80.65 301.655 79.89H303.665C303.645 81.23 303.215 82.26 302.375 82.98C301.535 83.68 300.385 84.03 298.925 84.03ZM320.372 102V86.1H335.102V102H332.222V87.9L332.912 88.62H322.562L323.252 87.9V102H320.372ZM347.485 102.18C345.885 102.18 344.465 101.83 343.225 101.13C341.985 100.43 341.005 99.47 340.285 98.25C339.565 97.01 339.205 95.61 339.205 94.05C339.205 92.47 339.565 91.07 340.285 89.85C341.005 88.63 341.985 87.68 343.225 87C344.465 86.3 345.885 85.95 347.485 85.95C349.065 85.95 350.475 86.3 351.715 87C352.975 87.68 353.955 88.63 354.655 89.85C355.375 91.05 355.735 92.45 355.735 94.05C355.735 95.63 355.375 97.03 354.655 98.25C353.955 99.47 352.975 100.43 351.715 101.13C350.475 101.83 349.065 102.18 347.485 102.18ZM347.485 99.66C348.505 99.66 349.415 99.43 350.215 98.97C351.035 98.51 351.675 97.86 352.135 97.02C352.595 96.16 352.825 95.17 352.825 94.05C352.825 92.91 352.595 91.93 352.135 91.11C351.675 90.27 351.035 89.62 350.215 89.16C349.415 88.7 348.505 88.47 347.485 88.47C346.465 88.47 345.555 88.7 344.755 89.16C343.955 89.62 343.315 90.27 342.835 91.11C342.355 91.93 342.115 92.91 342.115 94.05C342.115 95.17 342.355 96.16 342.835 97.02C343.315 97.86 343.955 98.51 344.755 98.97C345.555 99.43 346.465 99.66 347.485 99.66ZM366.824 102.18C365.204 102.18 363.754 101.83 362.474 101.13C361.214 100.43 360.224 99.47 359.504 98.25C358.784 97.03 358.424 95.63 358.424 94.05C358.424 92.47 358.784 91.07 359.504 89.85C360.224 88.63 361.214 87.68 362.474 87C363.754 86.3 365.204 85.95 366.824 85.95C368.264 85.95 369.544 86.24 370.664 86.82C371.804 87.38 372.684 88.22 373.304 89.34L371.114 90.75C370.594 89.97 369.954 89.4 369.194 89.04C368.454 88.66 367.654 88.47 366.794 88.47C365.754 88.47 364.824 88.7 364.004 89.16C363.184 89.62 362.534 90.27 362.054 91.11C361.574 91.93 361.334 92.91 361.334 94.05C361.334 95.19 361.574 96.18 362.054 97.02C362.534 97.86 363.184 98.51 364.004 98.97C364.824 99.43 365.754 99.66 366.794 99.66C367.654 99.66 368.454 99.48 369.194 99.12C369.954 98.74 370.594 98.16 371.114 97.38L373.304 98.76C372.684 99.86 371.804 100.71 370.664 101.31C369.544 101.89 368.264 102.18 366.824 102.18ZM379.977 102V87.87L380.697 88.62H374.157V86.1H388.677V88.62H382.167L382.857 87.87V102H379.977ZM401.372 102V98.64L401.222 98.01V92.28C401.222 91.06 400.862 90.12 400.142 89.46C399.442 88.78 398.382 88.44 396.962 88.44C396.022 88.44 395.102 88.6 394.202 88.92C393.302 89.22 392.542 89.63 391.922 90.15L390.722 87.99C391.542 87.33 392.522 86.83 393.662 86.49C394.822 86.13 396.032 85.95 397.292 85.95C399.472 85.95 401.152 86.48 402.332 87.54C403.512 88.6 404.102 90.22 404.102 92.4V102H401.372ZM396.152 102.18C394.972 102.18 393.932 101.98 393.032 101.58C392.152 101.18 391.472 100.63 390.992 99.93C390.512 99.21 390.272 98.4 390.272 97.5C390.272 96.64 390.472 95.86 390.872 95.16C391.292 94.46 391.962 93.9 392.882 93.48C393.822 93.06 395.082 92.85 396.662 92.85H401.702V94.92H396.782C395.342 94.92 394.372 95.16 393.872 95.64C393.372 96.12 393.122 96.7 393.122 97.38C393.122 98.16 393.432 98.79 394.052 99.27C394.672 99.73 395.532 99.96 396.632 99.96C397.712 99.96 398.652 99.72 399.452 99.24C400.272 98.76 400.862 98.06 401.222 97.14L401.792 99.12C401.412 100.06 400.742 100.81 399.782 101.37C398.822 101.91 397.612 102.18 396.152 102.18ZM409.288 102V86.1H416.668C418.528 86.1 419.988 86.46 421.048 87.18C422.128 87.88 422.668 88.88 422.668 90.18C422.668 91.48 422.158 92.49 421.138 93.21C420.138 93.91 418.808 94.26 417.148 94.26L417.598 93.48C419.498 93.48 420.908 93.83 421.828 94.53C422.748 95.23 423.208 96.26 423.208 97.62C423.208 99 422.688 100.08 421.648 100.86C420.628 101.62 419.058 102 416.938 102H409.288ZM412.108 99.78H416.728C417.928 99.78 418.828 99.6 419.428 99.24C420.028 98.86 420.328 98.26 420.328 97.44C420.328 96.6 420.048 95.99 419.488 95.61C418.948 95.21 418.088 95.01 416.908 95.01H412.108V99.78ZM412.108 92.94H416.428C417.528 92.94 418.358 92.74 418.918 92.34C419.498 91.92 419.788 91.34 419.788 90.6C419.788 89.84 419.498 89.27 418.918 88.89C418.358 88.51 417.528 88.32 416.428 88.32H412.108V92.94ZM438.276 99.48L437.616 100.23V86.1H440.496V100.23L439.776 99.48H448.176L447.486 100.23V86.1H450.366V102H427.716V86.1H430.596V100.23L429.906 99.48H438.276ZM450.006 105.39V101.25L450.696 102H447.336V99.48H452.706V105.39H450.006ZM455.958 102V86.1H458.838V97.68L468.588 86.1H471.198V102H468.318V90.42L458.598 102H455.958ZM488.308 102L482.158 94.26L484.528 92.82L491.698 102H488.308ZM476.788 102V86.1H479.668V102H476.788ZM478.798 95.28V92.82H484.048V95.28H478.798ZM484.768 94.38L482.098 94.02L488.188 86.1H491.278L484.768 94.38ZM509.704 102.18C508.084 102.18 506.634 101.83 505.354 101.13C504.094 100.43 503.104 99.47 502.384 98.25C501.664 97.03 501.304 95.63 501.304 94.05C501.304 92.47 501.664 91.07 502.384 89.85C503.104 88.63 504.094 87.68 505.354 87C506.634 86.3 508.084 85.95 509.704 85.95C511.144 85.95 512.424 86.24 513.544 86.82C514.684 87.38 515.564 88.22 516.184 89.34L513.994 90.75C513.474 89.97 512.834 89.4 512.074 89.04C511.334 88.66 510.534 88.47 509.674 88.47C508.634 88.47 507.704 88.7 506.884 89.16C506.064 89.62 505.414 90.27 504.934 91.11C504.454 91.93 504.214 92.91 504.214 94.05C504.214 95.19 504.454 96.18 504.934 97.02C505.414 97.86 506.064 98.51 506.884 98.97C507.704 99.43 508.634 99.66 509.674 99.66C510.534 99.66 511.334 99.48 512.074 99.12C512.834 98.74 513.474 98.16 513.994 97.38L516.184 98.76C515.564 99.86 514.684 100.71 513.544 101.31C512.424 101.89 511.144 102.18 509.704 102.18ZM519.913 102V86.1H522.883L529.723 97.86H528.523L535.543 86.1H538.243V102H535.633V89.34L536.113 89.61L529.693 100.2H528.433L521.983 89.4L522.553 89.28V102H519.913ZM553.599 102V98.64L553.449 98.01V92.28C553.449 91.06 553.089 90.12 552.369 89.46C551.669 88.78 550.609 88.44 549.189 88.44C548.249 88.44 547.329 88.6 546.429 88.92C545.529 89.22 544.769 89.63 544.149 90.15L542.949 87.99C543.769 87.33 544.749 86.83 545.889 86.49C547.049 86.13 548.259 85.95 549.519 85.95C551.699 85.95 553.379 86.48 554.559 87.54C555.739 88.6 556.329 90.22 556.329 92.4V102H553.599ZM548.379 102.18C547.199 102.18 546.159 101.98 545.259 101.58C544.379 101.18 543.699 100.63 543.219 99.93C542.739 99.21 542.499 98.4 542.499 97.5C542.499 96.64 542.699 95.86 543.099 95.16C543.519 94.46 544.189 93.9 545.109 93.48C546.049 93.06 547.309 92.85 548.889 92.85H553.929V94.92H549.009C547.569 94.92 546.599 95.16 546.099 95.64C545.599 96.12 545.349 96.7 545.349 97.38C545.349 98.16 545.659 98.79 546.279 99.27C546.899 99.73 547.759 99.96 548.859 99.96C549.939 99.96 550.879 99.72 551.679 99.24C552.499 98.76 553.089 98.06 553.449 97.14L554.019 99.12C553.639 100.06 552.969 100.81 552.009 101.37C551.049 101.91 549.839 102.18 548.379 102.18ZM565.901 102.21C564.701 102.21 563.521 102.06 562.361 101.76C561.221 101.44 560.201 100.99 559.301 100.41L560.171 98.22C560.931 98.7 561.801 99.08 562.781 99.36C563.761 99.62 564.751 99.75 565.751 99.75C566.671 99.75 567.461 99.64 568.121 99.42C568.801 99.2 569.321 98.9 569.681 98.52C570.041 98.12 570.221 97.66 570.221 97.14C570.221 96.4 569.891 95.83 569.231 95.43C568.571 95.03 567.651 94.83 566.471 94.83H563.591V92.76H566.291C566.991 92.76 567.601 92.68 568.121 92.52C568.641 92.36 569.041 92.12 569.321 91.8C569.621 91.46 569.771 91.07 569.771 90.63C569.771 90.15 569.601 89.74 569.261 89.4C568.921 89.06 568.441 88.8 567.821 88.62C567.221 88.44 566.511 88.35 565.691 88.35C564.891 88.37 564.071 88.48 563.231 88.68C562.411 88.88 561.571 89.19 560.711 89.61L559.931 87.36C560.891 86.9 561.831 86.55 562.751 86.31C563.691 86.05 564.621 85.91 565.541 85.89C566.921 85.85 568.151 86.01 569.231 86.37C570.311 86.71 571.161 87.21 571.781 87.87C572.421 88.53 572.741 89.31 572.741 90.21C572.741 90.97 572.501 91.65 572.021 92.25C571.541 92.83 570.901 93.29 570.101 93.63C569.301 93.97 568.381 94.14 567.341 94.14L567.461 93.45C569.241 93.45 570.641 93.8 571.661 94.5C572.681 95.2 573.191 96.15 573.191 97.35C573.191 98.31 572.871 99.16 572.231 99.9C571.591 100.62 570.721 101.19 569.621 101.61C568.541 102.01 567.301 102.21 565.901 102.21ZM584.379 102.18C582.779 102.18 581.359 101.83 580.119 101.13C578.879 100.43 577.899 99.47 577.179 98.25C576.459 97.01 576.099 95.61 576.099 94.05C576.099 92.47 576.459 91.07 577.179 89.85C577.899 88.63 578.879 87.68 580.119 87C581.359 86.3 582.779 85.95 584.379 85.95C585.959 85.95 587.369 86.3 588.609 87C589.869 87.68 590.849 88.63 591.549 89.85C592.269 91.05 592.629 92.45 592.629 94.05C592.629 95.63 592.269 97.03 591.549 98.25C590.849 99.47 589.869 100.43 588.609 101.13C587.369 101.83 585.959 102.18 584.379 102.18ZM584.379 99.66C585.399 99.66 586.309 99.43 587.109 98.97C587.929 98.51 588.569 97.86 589.029 97.02C589.489 96.16 589.719 95.17 589.719 94.05C589.719 92.91 589.489 91.93 589.029 91.11C588.569 90.27 587.929 89.62 587.109 89.16C586.309 88.7 585.399 88.47 584.379 88.47C583.359 88.47 582.449 88.7 581.649 89.16C580.849 89.62 580.209 90.27 579.729 91.11C579.249 91.93 579.009 92.91 579.009 94.05C579.009 95.17 579.249 96.16 579.729 97.02C580.209 97.86 580.849 98.51 581.649 98.97C582.449 99.43 583.359 99.66 584.379 99.66ZM608.308 102L602.158 94.26L604.528 92.82L611.698 102H608.308ZM596.788 102V86.1H599.668V102H596.788ZM598.798 95.28V92.82H604.048V95.28H598.798ZM604.768 94.38L602.098 94.02L608.188 86.1H611.278L604.768 94.38ZM613.518 106.44L615.018 100.38L615.408 102.12C614.828 102.12 614.338 101.94 613.938 101.58C613.558 101.22 613.368 100.73 613.368 100.11C613.368 99.51 613.558 99.02 613.938 98.64C614.338 98.26 614.818 98.07 615.378 98.07C615.958 98.07 616.428 98.27 616.788 98.67C617.148 99.05 617.328 99.53 617.328 100.11C617.328 100.31 617.308 100.51 617.268 100.71C617.248 100.89 617.198 101.11 617.118 101.37C617.058 101.61 616.958 101.91 616.818 102.27L615.408 106.44H613.518ZM629.571 102V86.1H632.541L639.381 97.86H638.181L645.201 86.1H647.901V102H645.291V89.34L645.771 89.61L639.351 100.2H638.091L631.641 89.4L632.211 89.28V102H629.571ZM663.257 102V98.64L663.107 98.01V92.28C663.107 91.06 662.747 90.12 662.027 89.46C661.327 88.78 660.267 88.44 658.847 88.44C657.907 88.44 656.987 88.6 656.087 88.92C655.187 89.22 654.427 89.63 653.807 90.15L652.607 87.99C653.427 87.33 654.407 86.83 655.547 86.49C656.707 86.13 657.917 85.95 659.177 85.95C661.357 85.95 663.037 86.48 664.217 87.54C665.397 88.6 665.987 90.22 665.987 92.4V102H663.257ZM658.037 102.18C656.857 102.18 655.817 101.98 654.917 101.58C654.037 101.18 653.357 100.63 652.877 99.93C652.397 99.21 652.157 98.4 652.157 97.5C652.157 96.64 652.357 95.86 652.757 95.16C653.177 94.46 653.847 93.9 654.767 93.48C655.707 93.06 656.967 92.85 658.547 92.85H663.587V94.92H658.667C657.227 94.92 656.257 95.16 655.757 95.64C655.257 96.12 655.007 96.7 655.007 97.38C655.007 98.16 655.317 98.79 655.937 99.27C656.557 99.73 657.417 99.96 658.517 99.96C659.597 99.96 660.537 99.72 661.337 99.24C662.157 98.76 662.747 98.06 663.107 97.14L663.677 99.12C663.297 100.06 662.627 100.81 661.667 101.37C660.707 101.91 659.497 102.18 658.037 102.18ZM678.103 102.18C676.483 102.18 675.033 101.83 673.753 101.13C672.493 100.43 671.503 99.47 670.783 98.25C670.063 97.03 669.703 95.63 669.703 94.05C669.703 92.47 670.063 91.07 670.783 89.85C671.503 88.63 672.493 87.68 673.753 87C675.033 86.3 676.483 85.95 678.103 85.95C679.543 85.95 680.823 86.24 681.943 86.82C683.083 87.38 683.963 88.22 684.583 89.34L682.393 90.75C681.873 89.97 681.233 89.4 680.473 89.04C679.733 88.66 678.933 88.47 678.073 88.47C677.033 88.47 676.103 88.7 675.283 89.16C674.463 89.62 673.813 90.27 673.333 91.11C672.853 91.93 672.613 92.91 672.613 94.05C672.613 95.19 672.853 96.18 673.333 97.02C673.813 97.86 674.463 98.51 675.283 98.97C676.103 99.43 677.033 99.66 678.073 99.66C678.933 99.66 679.733 99.48 680.473 99.12C681.233 98.74 681.873 98.16 682.393 97.38L684.583 98.76C683.963 99.86 683.083 100.71 681.943 101.31C680.823 101.89 679.543 102.18 678.103 102.18ZM695.157 102.18C693.457 102.18 691.957 101.83 690.657 101.13C689.377 100.43 688.377 99.47 687.657 98.25C686.957 97.03 686.607 95.63 686.607 94.05C686.607 92.47 686.947 91.07 687.627 89.85C688.327 88.63 689.277 87.68 690.477 87C691.697 86.3 693.067 85.95 694.587 85.95C696.127 85.95 697.487 86.29 698.667 86.97C699.847 87.65 700.767 88.61 701.427 89.85C702.107 91.07 702.447 92.5 702.447 94.14C702.447 94.26 702.437 94.4 702.417 94.56C702.417 94.72 702.407 94.87 702.387 95.01H688.857V92.94H700.887L699.717 93.66C699.737 92.64 699.527 91.73 699.087 90.93C698.647 90.13 698.037 89.51 697.257 89.07C696.497 88.61 695.607 88.38 694.587 88.38C693.587 88.38 692.697 88.61 691.917 89.07C691.137 89.51 690.527 90.14 690.087 90.96C689.647 91.76 689.427 92.68 689.427 93.72V94.2C689.427 95.26 689.667 96.21 690.147 97.05C690.647 97.87 691.337 98.51 692.217 98.97C693.097 99.43 694.107 99.66 695.247 99.66C696.187 99.66 697.037 99.5 697.797 99.18C698.577 98.86 699.257 98.38 699.837 97.74L701.427 99.6C700.707 100.44 699.807 101.08 698.727 101.52C697.667 101.96 696.477 102.18 695.157 102.18ZM704.011 101.97L704.191 99.54C704.331 99.56 704.461 99.58 704.581 99.6C704.701 99.62 704.811 99.63 704.911 99.63C705.551 99.63 706.051 99.41 706.411 98.97C706.791 98.53 707.071 97.95 707.251 97.23C707.431 96.49 707.561 95.66 707.641 94.74C707.721 93.82 707.781 92.9 707.821 91.98L708.091 86.1H720.301V102H717.421V87.78L718.111 88.62H709.951L710.611 87.75L710.401 92.16C710.341 93.56 710.231 94.87 710.071 96.09C709.911 97.31 709.661 98.38 709.321 99.3C709.001 100.22 708.551 100.94 707.971 101.46C707.411 101.98 706.681 102.24 705.781 102.24C705.521 102.24 705.241 102.21 704.941 102.15C704.661 102.11 704.351 102.05 704.011 101.97ZM744.787 100.65V88.62H737.887L737.737 91.68C737.697 92.68 737.627 93.65 737.527 94.59C737.447 95.51 737.307 96.36 737.107 97.14C736.927 97.92 736.657 98.56 736.297 99.06C735.937 99.56 735.457 99.87 734.857 99.99L732.007 99.48C732.627 99.5 733.127 99.3 733.507 98.88C733.887 98.44 734.177 97.84 734.377 97.08C734.597 96.32 734.757 95.46 734.857 94.5C734.957 93.52 735.037 92.51 735.097 91.47L735.337 86.1H747.667V100.65H744.787ZM731.377 105.69V99.48H750.097V105.69H747.397V102H734.107V105.69H731.377ZM751.209 101.97L751.389 99.54C751.529 99.56 751.659 99.58 751.779 99.6C751.899 99.62 752.009 99.63 752.109 99.63C752.749 99.63 753.249 99.41 753.609 98.97C753.989 98.53 754.269 97.95 754.449 97.23C754.629 96.49 754.759 95.66 754.839 94.74C754.919 93.82 754.979 92.9 755.019 91.98L755.289 86.1H767.499V102H764.619V87.78L765.309 88.62H757.149L757.809 87.75L757.599 92.16C757.539 93.56 757.429 94.87 757.269 96.09C757.109 97.31 756.859 98.38 756.519 99.3C756.199 100.22 755.749 100.94 755.169 101.46C754.609 101.98 753.879 102.24 752.979 102.24C752.719 102.24 752.439 102.21 752.139 102.15C751.859 102.11 751.549 102.05 751.209 101.97ZM783.237 102V96.42L783.687 96.96H778.617C776.497 96.96 774.837 96.51 773.637 95.61C772.457 94.71 771.867 93.4 771.867 91.68C771.867 89.84 772.497 88.45 773.757 87.51C775.037 86.57 776.737 86.1 778.857 86.1H785.817V102H783.237ZM771.717 102L776.037 95.91H779.007L774.807 102H771.717ZM783.237 95.52V87.81L783.687 88.62H778.947C777.627 88.62 776.607 88.87 775.887 89.37C775.167 89.85 774.807 90.65 774.807 91.77C774.807 93.85 776.147 94.89 778.827 94.89H783.687L783.237 95.52ZM176.745 139.18C175.125 139.18 173.675 138.83 172.395 138.13C171.135 137.43 170.145 136.47 169.425 135.25C168.705 134.03 168.345 132.63 168.345 131.05C168.345 129.47 168.705 128.07 169.425 126.85C170.145 125.63 171.135 124.68 172.395 124C173.675 123.3 175.125 122.95 176.745 122.95C178.185 122.95 179.465 123.24 180.585 123.82C181.725 124.38 182.605 125.22 183.225 126.34L181.035 127.75C180.515 126.97 179.875 126.4 179.115 126.04C178.375 125.66 177.575 125.47 176.715 125.47C175.675 125.47 174.745 125.7 173.925 126.16C173.105 126.62 172.455 127.27 171.975 128.11C171.495 128.93 171.255 129.91 171.255 131.05C171.255 132.19 171.495 133.18 171.975 134.02C172.455 134.86 173.105 135.51 173.925 135.97C174.745 136.43 175.675 136.66 176.715 136.66C177.575 136.66 178.375 136.48 179.115 136.12C179.875 135.74 180.515 135.16 181.035 134.38L183.225 135.76C182.605 136.86 181.725 137.71 180.585 138.31C179.465 138.89 178.185 139.18 176.745 139.18ZM193.8 139.18C192.1 139.18 190.6 138.83 189.3 138.13C188.02 137.43 187.02 136.47 186.3 135.25C185.6 134.03 185.25 132.63 185.25 131.05C185.25 129.47 185.59 128.07 186.27 126.85C186.97 125.63 187.92 124.68 189.12 124C190.34 123.3 191.71 122.95 193.23 122.95C194.77 122.95 196.13 123.29 197.31 123.97C198.49 124.65 199.41 125.61 200.07 126.85C200.75 128.07 201.09 129.5 201.09 131.14C201.09 131.26 201.08 131.4 201.06 131.56C201.06 131.72 201.05 131.87 201.03 132.01H187.5V129.94H199.53L198.36 130.66C198.38 129.64 198.17 128.73 197.73 127.93C197.29 127.13 196.68 126.51 195.9 126.07C195.14 125.61 194.25 125.38 193.23 125.38C192.23 125.38 191.34 125.61 190.56 126.07C189.78 126.51 189.17 127.14 188.73 127.96C188.29 128.76 188.07 129.68 188.07 130.72V131.2C188.07 132.26 188.31 133.21 188.79 134.05C189.29 134.87 189.98 135.51 190.86 135.97C191.74 136.43 192.75 136.66 193.89 136.66C194.83 136.66 195.68 136.5 196.44 136.18C197.22 135.86 197.9 135.38 198.48 134.74L200.07 136.6C199.35 137.44 198.45 138.08 197.37 138.52C196.31 138.96 195.12 139.18 193.8 139.18ZM202.654 138.97L202.834 136.54C202.974 136.56 203.104 136.58 203.224 136.6C203.344 136.62 203.454 136.63 203.554 136.63C204.194 136.63 204.694 136.41 205.054 135.97C205.434 135.53 205.714 134.95 205.894 134.23C206.074 133.49 206.204 132.66 206.284 131.74C206.364 130.82 206.424 129.9 206.464 128.98L206.734 123.1H218.944V139H216.064V124.78L216.754 125.62H208.594L209.254 124.75L209.044 129.16C208.984 130.56 208.874 131.87 208.714 133.09C208.554 134.31 208.304 135.38 207.964 136.3C207.644 137.22 207.194 137.94 206.614 138.46C206.054 138.98 205.324 139.24 204.424 139.24C204.164 139.24 203.884 139.21 203.584 139.15C203.304 139.11 202.994 139.05 202.654 138.97ZM231.863 128.5C233.883 128.52 235.423 128.98 236.483 129.88C237.543 130.78 238.073 132.05 238.073 133.69C238.073 135.41 237.493 136.74 236.333 137.68C235.173 138.6 233.533 139.05 231.413 139.03L224.513 139V123.1H227.393V128.47L231.863 128.5ZM231.173 136.84C232.473 136.86 233.453 136.6 234.113 136.06C234.793 135.52 235.133 134.72 235.133 133.66C235.133 132.62 234.803 131.86 234.143 131.38C233.483 130.9 232.493 130.65 231.173 130.63L227.393 130.57V136.81L231.173 136.84ZM248.699 139.18C247.079 139.18 245.629 138.83 244.349 138.13C243.089 137.43 242.099 136.47 241.379 135.25C240.659 134.03 240.299 132.63 240.299 131.05C240.299 129.47 240.659 128.07 241.379 126.85C242.099 125.63 243.089 124.68 244.349 124C245.629 123.3 247.079 122.95 248.699 122.95C250.139 122.95 251.419 123.24 252.539 123.82C253.679 124.38 254.559 125.22 255.179 126.34L252.989 127.75C252.469 126.97 251.829 126.4 251.069 126.04C250.329 125.66 249.529 125.47 248.669 125.47C247.629 125.47 246.699 125.7 245.879 126.16C245.059 126.62 244.409 127.27 243.929 128.11C243.449 128.93 243.209 129.91 243.209 131.05C243.209 132.19 243.449 133.18 243.929 134.02C244.409 134.86 245.059 135.51 245.879 135.97C246.699 136.43 247.629 136.66 248.669 136.66C249.529 136.66 250.329 136.48 251.069 136.12C251.829 135.74 252.469 135.16 252.989 134.38L255.179 135.76C254.559 136.86 253.679 137.71 252.539 138.31C251.419 138.89 250.139 139.18 248.699 139.18ZM270.427 139L264.277 131.26L266.647 129.82L273.817 139H270.427ZM258.907 139V123.1H261.787V139H258.907ZM260.917 132.28V129.82H266.167V132.28H260.917ZM266.887 131.38L264.217 131.02L270.307 123.1H273.397L266.887 131.38ZM283.12 139.18C281.52 139.18 280.1 138.83 278.86 138.13C277.62 137.43 276.64 136.47 275.92 135.25C275.2 134.01 274.84 132.61 274.84 131.05C274.84 129.47 275.2 128.07 275.92 126.85C276.64 125.63 277.62 124.68 278.86 124C280.1 123.3 281.52 122.95 283.12 122.95C284.7 122.95 286.11 123.3 287.35 124C288.61 124.68 289.59 125.63 290.29 126.85C291.01 128.05 291.37 129.45 291.37 131.05C291.37 132.63 291.01 134.03 290.29 135.25C289.59 136.47 288.61 137.43 287.35 138.13C286.11 138.83 284.7 139.18 283.12 139.18ZM283.12 136.66C284.14 136.66 285.05 136.43 285.85 135.97C286.67 135.51 287.31 134.86 287.77 134.02C288.23 133.16 288.46 132.17 288.46 131.05C288.46 129.91 288.23 128.93 287.77 128.11C287.31 127.27 286.67 126.62 285.85 126.16C285.05 125.7 284.14 125.47 283.12 125.47C282.1 125.47 281.19 125.7 280.39 126.16C279.59 126.62 278.95 127.27 278.47 128.11C277.99 128.93 277.75 129.91 277.75 131.05C277.75 132.17 277.99 133.16 278.47 134.02C278.95 134.86 279.59 135.51 280.39 135.97C281.19 136.43 282.1 136.66 283.12 136.66ZM292.481 139L299.321 130.12L299.291 131.59L292.781 123.1H295.991L300.971 129.64H299.741L304.721 123.1H307.871L301.271 131.65L301.301 130.12L308.201 139H304.931L299.681 132.04L300.851 132.22L295.691 139H292.481ZM317.514 139.18C315.914 139.18 314.494 138.83 313.254 138.13C312.014 137.43 311.034 136.47 310.314 135.25C309.594 134.01 309.234 132.61 309.234 131.05C309.234 129.47 309.594 128.07 310.314 126.85C311.034 125.63 312.014 124.68 313.254 124C314.494 123.3 315.914 122.95 317.514 122.95C319.094 122.95 320.504 123.3 321.744 124C323.004 124.68 323.984 125.63 324.684 126.85C325.404 128.05 325.764 129.45 325.764 131.05C325.764 132.63 325.404 134.03 324.684 135.25C323.984 136.47 323.004 137.43 321.744 138.13C320.504 138.83 319.094 139.18 317.514 139.18ZM317.514 136.66C318.534 136.66 319.444 136.43 320.244 135.97C321.064 135.51 321.704 134.86 322.164 134.02C322.624 133.16 322.854 132.17 322.854 131.05C322.854 129.91 322.624 128.93 322.164 128.11C321.704 127.27 321.064 126.62 320.244 126.16C319.444 125.7 318.534 125.47 317.514 125.47C316.494 125.47 315.584 125.7 314.784 126.16C313.984 126.62 313.344 127.27 312.864 128.11C312.384 128.93 312.144 129.91 312.144 131.05C312.144 132.17 312.384 133.16 312.864 134.02C313.344 134.86 313.984 135.51 314.784 135.97C315.584 136.43 316.494 136.66 317.514 136.66ZM334.397 139.21C333.197 139.21 332.017 139.06 330.857 138.76C329.717 138.44 328.697 137.99 327.797 137.41L328.667 135.22C329.427 135.7 330.297 136.08 331.277 136.36C332.257 136.62 333.247 136.75 334.247 136.75C335.167 136.75 335.957 136.64 336.617 136.42C337.297 136.2 337.817 135.9 338.177 135.52C338.537 135.12 338.717 134.66 338.717 134.14C338.717 133.4 338.387 132.83 337.727 132.43C337.067 132.03 336.147 131.83 334.967 131.83H332.087V129.76H334.787C335.487 129.76 336.097 129.68 336.617 129.52C337.137 129.36 337.537 129.12 337.817 128.8C338.117 128.46 338.267 128.07 338.267 127.63C338.267 127.15 338.097 126.74 337.757 126.4C337.417 126.06 336.937 125.8 336.317 125.62C335.717 125.44 335.007 125.35 334.187 125.35C333.387 125.37 332.567 125.48 331.727 125.68C330.907 125.88 330.067 126.19 329.207 126.61L328.427 124.36C329.387 123.9 330.327 123.55 331.247 123.31C332.187 123.05 333.117 122.91 334.037 122.89C335.417 122.85 336.647 123.01 337.727 123.37C338.807 123.71 339.657 124.21 340.277 124.87C340.917 125.53 341.237 126.31 341.237 127.21C341.237 127.97 340.997 128.65 340.517 129.25C340.037 129.83 339.397 130.29 338.597 130.63C337.797 130.97 336.877 131.14 335.837 131.14L335.957 130.45C337.737 130.45 339.137 130.8 340.157 131.5C341.177 132.2 341.687 133.15 341.687 134.35C341.687 135.31 341.367 136.16 340.727 136.9C340.087 137.62 339.217 138.19 338.117 138.61C337.037 139.01 335.797 139.21 334.397 139.21ZM356.235 139V133.42L356.685 133.96H351.615C349.495 133.96 347.835 133.51 346.635 132.61C345.455 131.71 344.865 130.4 344.865 128.68C344.865 126.84 345.495 125.45 346.755 124.51C348.035 123.57 349.735 123.1 351.855 123.1H358.815V139H356.235ZM344.715 139L349.035 132.91H352.005L347.805 139H344.715ZM356.235 132.52V124.81L356.685 125.62H351.945C350.625 125.62 349.605 125.87 348.885 126.37C348.165 126.85 347.805 127.65 347.805 128.77C347.805 130.85 349.145 131.89 351.825 131.89H356.685L356.235 132.52ZM364.435 139V123.1H367.315V134.68L377.065 123.1H379.675V139H376.795V127.42L367.075 139H364.435ZM371.875 121.03C370.415 121.03 369.265 120.68 368.425 119.98C367.605 119.26 367.185 118.23 367.165 116.89H369.115C369.135 117.65 369.385 118.25 369.865 118.69C370.365 119.13 371.025 119.35 371.845 119.35C372.665 119.35 373.325 119.13 373.825 118.69C374.325 118.25 374.585 117.65 374.605 116.89H376.615C376.595 118.23 376.165 119.26 375.325 119.98C374.485 120.68 373.335 121.03 371.875 121.03ZM392.195 139.18C390.575 139.18 389.125 138.83 387.845 138.13C386.585 137.43 385.595 136.47 384.875 135.25C384.155 134.03 383.795 132.63 383.795 131.05C383.795 129.47 384.155 128.07 384.875 126.85C385.595 125.63 386.585 124.68 387.845 124C389.125 123.3 390.575 122.95 392.195 122.95C393.635 122.95 394.915 123.24 396.035 123.82C397.175 124.38 398.055 125.22 398.675 126.34L396.485 127.75C395.965 126.97 395.325 126.4 394.565 126.04C393.825 125.66 393.025 125.47 392.165 125.47C391.125 125.47 390.195 125.7 389.375 126.16C388.555 126.62 387.905 127.27 387.425 128.11C386.945 128.93 386.705 129.91 386.705 131.05C386.705 132.19 386.945 133.18 387.425 134.02C387.905 134.86 388.555 135.51 389.375 135.97C390.195 136.43 391.125 136.66 392.165 136.66C393.025 136.66 393.825 136.48 394.565 136.12C395.325 135.74 395.965 135.16 396.485 134.38L398.675 135.76C398.055 136.86 397.175 137.71 396.035 138.31C394.915 138.89 393.635 139.18 392.195 139.18ZM402.403 139V123.1H409.783C411.643 123.1 413.103 123.46 414.163 124.18C415.243 124.88 415.783 125.88 415.783 127.18C415.783 128.48 415.273 129.49 414.253 130.21C413.253 130.91 411.923 131.26 410.263 131.26L410.713 130.48C412.613 130.48 414.023 130.83 414.943 131.53C415.863 132.23 416.323 133.26 416.323 134.62C416.323 136 415.803 137.08 414.763 137.86C413.743 138.62 412.173 139 410.053 139H402.403ZM405.223 136.78H409.843C411.043 136.78 411.943 136.6 412.543 136.24C413.143 135.86 413.443 135.26 413.443 134.44C413.443 133.6 413.163 132.99 412.603 132.61C412.063 132.21 411.203 132.01 410.023 132.01H405.223V136.78ZM405.223 129.94H409.543C410.643 129.94 411.473 129.74 412.033 129.34C412.613 128.92 412.903 128.34 412.903 127.6C412.903 126.84 412.613 126.27 412.033 125.89C411.473 125.51 410.643 125.32 409.543 125.32H405.223V129.94ZM423.981 139V124.87L424.701 125.62H418.161V123.1H432.681V125.62H426.171L426.861 124.87V139H423.981ZM442.003 139.18C440.303 139.18 438.803 138.83 437.503 138.13C436.223 137.43 435.223 136.47 434.503 135.25C433.803 134.03 433.453 132.63 433.453 131.05C433.453 129.47 433.793 128.07 434.473 126.85C435.173 125.63 436.123 124.68 437.323 124C438.543 123.3 439.913 122.95 441.433 122.95C442.973 122.95 444.333 123.29 445.513 123.97C446.693 124.65 447.613 125.61 448.273 126.85C448.953 128.07 449.293 129.5 449.293 131.14C449.293 131.26 449.283 131.4 449.263 131.56C449.263 131.72 449.253 131.87 449.233 132.01H435.703V129.94H447.733L446.563 130.66C446.583 129.64 446.373 128.73 445.933 127.93C445.493 127.13 444.883 126.51 444.103 126.07C443.343 125.61 442.453 125.38 441.433 125.38C440.433 125.38 439.543 125.61 438.763 126.07C437.983 126.51 437.373 127.14 436.933 127.96C436.493 128.76 436.273 129.68 436.273 130.72V131.2C436.273 132.26 436.513 133.21 436.993 134.05C437.493 134.87 438.183 135.51 439.063 135.97C439.943 136.43 440.953 136.66 442.093 136.66C443.033 136.66 443.883 136.5 444.643 136.18C445.423 135.86 446.103 135.38 446.683 134.74L448.273 136.6C447.553 137.44 446.653 138.08 445.573 138.52C444.513 138.96 443.323 139.18 442.003 139.18ZM453.761 139V123.1H456.641V129.85H465.701V123.1H468.581V139H465.701V132.34H456.641V139H453.761ZM474.181 139V123.1H477.061V129.85H486.121V123.1H489.001V139H486.121V132.34H477.061V139H474.181ZM501.411 139.18C499.811 139.18 498.391 138.83 497.151 138.13C495.911 137.43 494.931 136.47 494.211 135.25C493.491 134.01 493.131 132.61 493.131 131.05C493.131 129.47 493.491 128.07 494.211 126.85C494.931 125.63 495.911 124.68 497.151 124C498.391 123.3 499.811 122.95 501.411 122.95C502.991 122.95 504.401 123.3 505.641 124C506.901 124.68 507.881 125.63 508.581 126.85C509.301 128.05 509.661 129.45 509.661 131.05C509.661 132.63 509.301 134.03 508.581 135.25C507.881 136.47 506.901 137.43 505.641 138.13C504.401 138.83 502.991 139.18 501.411 139.18ZM501.411 136.66C502.431 136.66 503.341 136.43 504.141 135.97C504.961 135.51 505.601 134.86 506.061 134.02C506.521 133.16 506.751 132.17 506.751 131.05C506.751 129.91 506.521 128.93 506.061 128.11C505.601 127.27 504.961 126.62 504.141 126.16C503.341 125.7 502.431 125.47 501.411 125.47C500.391 125.47 499.481 125.7 498.681 126.16C497.881 126.62 497.241 127.27 496.761 128.11C496.281 128.93 496.041 129.91 496.041 131.05C496.041 132.17 496.281 133.16 496.761 134.02C497.241 134.86 497.881 135.51 498.681 135.97C499.481 136.43 500.391 136.66 501.411 136.66ZM513.819 139V123.1H516.699V134.68L526.449 123.1H529.059V139H526.179V127.42L516.459 139H513.819ZM521.259 121.03C519.799 121.03 518.649 120.68 517.809 119.98C516.989 119.26 516.569 118.23 516.549 116.89H518.499C518.519 117.65 518.769 118.25 519.249 118.69C519.749 119.13 520.409 119.35 521.229 119.35C522.049 119.35 522.709 119.13 523.209 118.69C523.709 118.25 523.969 117.65 523.989 116.89H525.999C525.979 118.23 525.549 119.26 524.709 119.98C523.869 120.68 522.719 121.03 521.259 121.03ZM545.856 139V124.87L546.576 125.62H540.036V123.1H554.556V125.62H548.046L548.736 124.87V139H545.856ZM563.878 139.18C562.178 139.18 560.678 138.83 559.378 138.13C558.098 137.43 557.098 136.47 556.378 135.25C555.678 134.03 555.328 132.63 555.328 131.05C555.328 129.47 555.668 128.07 556.348 126.85C557.048 125.63 557.998 124.68 559.198 124C560.418 123.3 561.788 122.95 563.308 122.95C564.848 122.95 566.208 123.29 567.388 123.97C568.568 124.65 569.488 125.61 570.148 126.85C570.828 128.07 571.168 129.5 571.168 131.14C571.168 131.26 571.158 131.4 571.138 131.56C571.138 131.72 571.128 131.87 571.108 132.01H557.578V129.94H569.608L568.438 130.66C568.458 129.64 568.248 128.73 567.808 127.93C567.368 127.13 566.758 126.51 565.978 126.07C565.218 125.61 564.328 125.38 563.308 125.38C562.308 125.38 561.418 125.61 560.638 126.07C559.858 126.51 559.248 127.14 558.808 127.96C558.368 128.76 558.148 129.68 558.148 130.72V131.2C558.148 132.26 558.388 133.21 558.868 134.05C559.368 134.87 560.058 135.51 560.938 135.97C561.818 136.43 562.828 136.66 563.968 136.66C564.908 136.66 565.758 136.5 566.518 136.18C567.298 135.86 567.978 135.38 568.558 134.74L570.148 136.6C569.428 137.44 568.528 138.08 567.448 138.52C566.388 138.96 565.198 139.18 563.878 139.18ZM572.676 139L579.516 130.12L579.486 131.59L572.976 123.1H576.186L581.166 129.64H579.936L584.916 123.1H588.066L581.466 131.65L581.496 130.12L588.396 139H585.126L579.876 132.04L581.046 132.22L575.886 139H572.676ZM591.427 139V123.1H594.307V129.85H603.367V123.1H606.247V139H603.367V132.34H594.307V139H591.427ZM611.847 139V123.1H614.727V134.68L624.477 123.1H627.087V139H624.207V127.42L614.487 139H611.847ZM644.197 139L638.047 131.26L640.417 129.82L647.587 139H644.197ZM632.677 139V123.1H635.557V139H632.677ZM634.687 132.28V129.82H639.937V132.28H634.687ZM640.657 131.38L637.987 131.02L644.077 123.1H647.167L640.657 131.38ZM650.606 139V123.1H653.486V134.68L663.236 123.1H665.846V139H662.966V127.42L653.246 139H650.606Z" fill="#F5F5F5"/>
</svg>
