<svg width="767" height="367" viewBox="0 0 767 367" fill="none" xmlns="http://www.w3.org/2000/svg">
<path d="M326.629 30.4083L369.886 14.8401C377.909 11.9499 388.485 11.9499 396.508 14.8401L444.732 32.1481C448.828 33.6059 453.653 34.1968 458.365 33.9718C439.962 13.1552 413.116 0 383.184 0C353.896 0 327.524 12.5686 309.21 32.6258C315.186 32.9897 321.385 32.2892 326.631 30.4087L326.629 30.4083Z" fill="white"/>
<path d="M326.629 83.2622L369.886 67.694C377.909 64.8038 388.485 64.8038 396.508 67.694L444.732 85.002C452.277 87.7239 462.322 87.4989 469.446 84.4698L481.201 79.4488C479.461 71.1733 476.712 63.2624 473.067 55.8851L469.419 57.427C462.294 60.4562 452.251 60.6812 444.705 57.9593L396.481 40.6513C388.458 37.7611 377.882 37.7904 369.859 40.6513L326.602 56.2195C316.475 59.867 302.785 59.1645 294.201 54.5641L294.005 54.4525C290.358 61.5223 287.553 69.095 285.673 77.0064L294.173 81.5501C302.811 86.2072 316.5 86.9096 326.629 83.2623L326.629 83.2622Z" fill="white"/>
<path d="M469.412 110.278C462.287 113.307 452.243 113.532 444.697 110.81L396.474 93.5023C388.451 90.6122 377.874 90.6415 369.851 93.5023L326.594 109.071C316.467 112.718 302.778 112.016 294.193 107.415L283 101.412C283.141 112.884 285.217 123.882 288.919 134.122L294.193 136.955C302.804 141.556 316.467 142.258 326.593 138.611L369.851 123.042C377.874 120.152 388.45 120.152 396.473 123.042L444.697 140.35C452.242 143.072 462.286 142.847 469.411 139.818L476.424 136.816C480.408 126.69 482.792 115.777 483.269 104.331L469.412 110.278Z" fill="white"/>
<path d="M396.506 148.876C388.483 145.986 377.906 146.015 369.883 148.876L326.626 164.444C321.071 166.436 314.451 167.082 308.167 166.548C316.611 176.085 326.879 183.996 338.38 189.775L369.883 178.441C377.906 175.551 388.482 175.551 396.505 178.441L428.065 189.777C438.921 184.306 448.683 176.929 456.847 168.064C452.64 168.121 448.376 167.502 444.701 166.184L396.506 148.876Z" fill="white"/>
<path d="M184.064 266.576C181.472 266.576 179.056 266.16 176.816 265.328C174.608 264.464 172.688 263.248 171.056 261.68C169.424 260.112 168.144 258.272 167.216 256.16C166.32 254.048 165.872 251.728 165.872 249.2C165.872 246.672 166.32 244.352 167.216 242.24C168.144 240.128 169.424 238.288 171.056 236.72C172.72 235.152 174.656 233.952 176.864 233.12C179.072 232.256 181.488 231.824 184.112 231.824C187.024 231.824 189.648 232.336 191.984 233.36C194.352 234.352 196.336 235.824 197.936 237.776L192.944 242.384C191.792 241.072 190.512 240.096 189.104 239.456C187.696 238.784 186.16 238.448 184.496 238.448C182.928 238.448 181.488 238.704 180.176 239.216C178.864 239.728 177.728 240.464 176.768 241.424C175.808 242.384 175.056 243.52 174.512 244.832C174 246.144 173.744 247.6 173.744 249.2C173.744 250.8 174 252.256 174.512 253.568C175.056 254.88 175.808 256.016 176.768 256.976C177.728 257.936 178.864 258.672 180.176 259.184C181.488 259.696 182.928 259.952 184.496 259.952C186.16 259.952 187.696 259.632 189.104 258.992C190.512 258.32 191.792 257.312 192.944 255.968L197.936 260.576C196.336 262.528 194.352 264.016 191.984 265.04C189.648 266.064 187.008 266.576 184.064 266.576ZM203.004 266V232.4H217.548C220.556 232.4 223.148 232.896 225.324 233.888C227.5 234.848 229.18 236.24 230.364 238.064C231.548 239.888 232.14 242.064 232.14 244.592C232.14 247.088 231.548 249.248 230.364 251.072C229.18 252.896 227.5 254.304 225.324 255.296C223.148 256.256 220.556 256.736 217.548 256.736H207.324L210.78 253.232V266H203.004ZM210.78 254.096L207.324 250.4H217.116C219.516 250.4 221.308 249.888 222.492 248.864C223.676 247.84 224.268 246.416 224.268 244.592C224.268 242.736 223.676 241.296 222.492 240.272C221.308 239.248 219.516 238.736 217.116 238.736H207.324L210.78 235.04V254.096ZM244.422 245.936H260.598V251.984H244.422V245.936ZM244.998 259.76H263.286V266H237.27V232.4H262.662V238.64H244.998V259.76ZM291.839 262.544V238.736H280.319L280.175 243.632C280.079 245.712 279.935 247.68 279.743 249.536C279.583 251.392 279.327 253.088 278.975 254.624C278.623 256.128 278.159 257.408 277.583 258.464C277.039 259.52 276.351 260.272 275.519 260.72L267.215 259.664C268.367 259.696 269.311 259.296 270.047 258.464C270.815 257.632 271.423 256.464 271.871 254.96C272.319 253.424 272.639 251.632 272.831 249.584C273.055 247.536 273.215 245.312 273.311 242.912L273.695 232.4H299.519V262.544H291.839ZM266.111 272.96L266.159 259.664H304.223V272.96H297.023V266H273.311V272.96H266.111ZM332.497 232.4H340.273V266H332.497V232.4ZM317.233 266H309.457V232.4H317.233V266ZM333.073 252.224H316.657V245.648H333.073V252.224ZM367.844 266V255.392L369.764 257.072H360.548C357.636 257.072 355.124 256.592 353.012 255.632C350.9 254.672 349.284 253.28 348.164 251.456C347.044 249.632 346.484 247.456 346.484 244.928C346.484 242.304 347.076 240.064 348.26 238.208C349.476 236.32 351.172 234.88 353.348 233.888C355.524 232.896 358.084 232.4 361.028 232.4H375.524V266H367.844ZM346.58 266L354.932 253.952H362.804L354.788 266H346.58ZM367.844 252.896V236.72L369.764 238.736H361.22C359.012 238.736 357.316 239.248 356.132 240.272C354.98 241.296 354.404 242.816 354.404 244.832C354.404 246.784 354.964 248.288 356.084 249.344C357.204 250.4 358.852 250.928 361.028 250.928H369.764L367.844 252.896ZM403.094 266V255.392L405.014 257.072H395.798C392.886 257.072 390.374 256.592 388.262 255.632C386.15 254.672 384.534 253.28 383.414 251.456C382.294 249.632 381.734 247.456 381.734 244.928C381.734 242.304 382.326 240.064 383.51 238.208C384.726 236.32 386.422 234.88 388.598 233.888C390.774 232.896 393.334 232.4 396.278 232.4H410.774V266H403.094ZM381.83 266L390.182 253.952H398.054L390.038 266H381.83ZM403.094 252.896V236.72L405.014 238.736H396.47C394.262 238.736 392.566 239.248 391.382 240.272C390.23 241.296 389.654 242.816 389.654 244.832C389.654 246.784 390.214 248.288 391.334 249.344C392.454 250.4 394.102 250.928 396.278 250.928H405.014L403.094 252.896ZM432.785 266V232.4H448.433C452.337 232.4 455.377 233.152 457.553 234.656C459.729 236.16 460.817 238.304 460.817 241.088C460.817 243.84 459.793 245.984 457.745 247.52C455.697 249.024 452.977 249.776 449.585 249.776L450.497 247.76C454.273 247.76 457.201 248.512 459.281 250.016C461.361 251.52 462.401 253.696 462.401 256.544C462.401 259.488 461.281 261.808 459.041 263.504C456.833 265.168 453.601 266 449.345 266H432.785ZM440.513 260.24H449.057C450.849 260.24 452.209 259.888 453.137 259.184C454.065 258.48 454.529 257.392 454.529 255.92C454.529 254.512 454.065 253.472 453.137 252.8C452.209 252.096 450.849 251.744 449.057 251.744H440.513V260.24ZM440.513 246.32H447.761C449.457 246.32 450.737 245.984 451.601 245.312C452.465 244.608 452.897 243.584 452.897 242.24C452.897 240.896 452.465 239.888 451.601 239.216C450.737 238.512 449.457 238.16 447.761 238.16H440.513V246.32ZM484.631 266.576C481.975 266.576 479.511 266.144 477.239 265.28C474.999 264.416 473.047 263.2 471.383 261.632C469.751 260.064 468.471 258.224 467.543 256.112C466.647 254 466.199 251.696 466.199 249.2C466.199 246.704 466.647 244.4 467.543 242.288C468.471 240.176 469.767 238.336 471.431 236.768C473.095 235.2 475.047 233.984 477.287 233.12C479.527 232.256 481.959 231.824 484.583 231.824C487.239 231.824 489.671 232.256 491.879 233.12C494.119 233.984 496.055 235.2 497.687 236.768C499.351 238.336 500.647 240.176 501.575 242.288C502.503 244.368 502.967 246.672 502.967 249.2C502.967 251.696 502.503 254.016 501.575 256.16C500.647 258.272 499.351 260.112 497.687 261.68C496.055 263.216 494.119 264.416 491.879 265.28C489.671 266.144 487.255 266.576 484.631 266.576ZM484.583 259.952C486.087 259.952 487.463 259.696 488.711 259.184C489.991 258.672 491.111 257.936 492.071 256.976C493.031 256.016 493.767 254.88 494.279 253.568C494.823 252.256 495.095 250.8 495.095 249.2C495.095 247.6 494.823 246.144 494.279 244.832C493.767 243.52 493.031 242.384 492.071 241.424C491.143 240.464 490.039 239.728 488.759 239.216C487.479 238.704 486.087 238.448 484.583 238.448C483.079 238.448 481.687 238.704 480.407 239.216C479.159 239.728 478.055 240.464 477.095 241.424C476.135 242.384 475.383 243.52 474.839 244.832C474.327 246.144 474.071 247.6 474.071 249.2C474.071 250.768 474.327 252.224 474.839 253.568C475.383 254.88 476.119 256.016 477.047 256.976C478.007 257.936 479.127 258.672 480.407 259.184C481.687 259.696 483.079 259.952 484.583 259.952ZM508.356 266.528C507.78 266.528 507.172 266.48 506.532 266.384C505.924 266.288 505.252 266.16 504.516 266L504.996 259.424C505.444 259.552 505.908 259.616 506.388 259.616C507.7 259.616 508.724 259.088 509.46 258.032C510.196 256.944 510.724 255.392 511.044 253.376C511.364 251.36 511.572 248.912 511.668 246.032L512.148 232.4H537.972V266H530.292V236.96L532.068 238.736H517.236L518.82 236.864L518.532 245.744C518.436 249.04 518.212 251.968 517.86 254.528C517.508 257.088 516.964 259.264 516.228 261.056C515.492 262.848 514.484 264.208 513.204 265.136C511.924 266.064 510.308 266.528 508.356 266.528ZM546.364 266V232.4H570.076L570.028 238.736H552.268L554.044 236.96L554.092 266H546.364ZM564.462 266L579.438 232.4H587.118L602.142 266H593.982L581.694 236.336H584.766L572.43 266H564.462ZM571.95 258.8L574.014 252.896H591.294L593.406 258.8H571.95Z" fill="white"/>
<path d="M85.4095 327.24C83.8095 327.24 82.3195 326.97 80.9395 326.43C79.5795 325.89 78.3995 325.14 77.3995 324.18C76.3995 323.2 75.6195 322.06 75.0595 320.76C74.4995 319.46 74.2195 318.04 74.2195 316.5C74.2195 314.96 74.4995 313.54 75.0595 312.24C75.6195 310.94 76.3995 309.81 77.3995 308.85C78.3995 307.87 79.5795 307.11 80.9395 306.57C82.2995 306.03 83.7895 305.76 85.4095 305.76C87.0095 305.76 88.4795 306.03 89.8195 306.57C91.1795 307.09 92.3595 307.84 93.3595 308.82C94.3795 309.78 95.1595 310.91 95.6995 312.21C96.2595 313.51 96.5395 314.94 96.5395 316.5C96.5395 318.06 96.2595 319.49 95.6995 320.79C95.1595 322.09 94.3795 323.23 93.3595 324.21C92.3595 325.17 91.1795 325.92 89.8195 326.46C88.4795 326.98 87.0095 327.24 85.4095 327.24ZM85.4095 324.57C86.5695 324.57 87.6395 324.37 88.6195 323.97C89.6195 323.57 90.4795 323.01 91.1995 322.29C91.9395 321.55 92.5095 320.69 92.9095 319.71C93.3295 318.73 93.5395 317.66 93.5395 316.5C93.5395 315.34 93.3295 314.27 92.9095 313.29C92.5095 312.31 91.9395 311.46 91.1995 310.74C90.4795 310 89.6195 309.43 88.6195 309.03C87.6395 308.63 86.5695 308.43 85.4095 308.43C84.2295 308.43 83.1395 308.63 82.1395 309.03C81.1595 309.43 80.2995 310 79.5595 310.74C78.8195 311.46 78.2395 312.31 77.8195 313.29C77.4195 314.27 77.2195 315.34 77.2195 316.5C77.2195 317.66 77.4195 318.73 77.8195 319.71C78.2395 320.69 78.8195 321.55 79.5595 322.29C80.2995 323.01 81.1595 323.57 82.1395 323.97C83.1395 324.37 84.2295 324.57 85.4095 324.57ZM100.909 327V311.1H115.639V327H112.759V312.9L113.449 313.62H103.099L103.789 312.9V327H100.909ZM124.362 327V312.87L125.082 313.62H118.542V311.1H133.062V313.62H126.552L127.242 312.87V327H124.362ZM142.114 327.18C140.514 327.18 139.094 326.83 137.854 326.13C136.614 325.43 135.634 324.47 134.914 323.25C134.194 322.01 133.834 320.61 133.834 319.05C133.834 317.47 134.194 316.07 134.914 314.85C135.634 313.63 136.614 312.68 137.854 312C139.094 311.3 140.514 310.95 142.114 310.95C143.694 310.95 145.104 311.3 146.344 312C147.604 312.68 148.584 313.63 149.284 314.85C150.004 316.05 150.364 317.45 150.364 319.05C150.364 320.63 150.004 322.03 149.284 323.25C148.584 324.47 147.604 325.43 146.344 326.13C145.104 326.83 143.694 327.18 142.114 327.18ZM142.114 324.66C143.134 324.66 144.044 324.43 144.844 323.97C145.664 323.51 146.304 322.86 146.764 322.02C147.224 321.16 147.454 320.17 147.454 319.05C147.454 317.91 147.224 316.93 146.764 316.11C146.304 315.27 145.664 314.62 144.844 314.16C144.044 313.7 143.134 313.47 142.114 313.47C141.094 313.47 140.184 313.7 139.384 314.16C138.584 314.62 137.944 315.27 137.464 316.11C136.984 316.93 136.744 317.91 136.744 319.05C136.744 320.17 136.984 321.16 137.464 322.02C137.944 322.86 138.584 323.51 139.384 323.97C140.184 324.43 141.094 324.66 142.114 324.66ZM154.522 327V311.1H161.902C163.762 311.1 165.222 311.46 166.282 312.18C167.362 312.88 167.902 313.88 167.902 315.18C167.902 316.48 167.392 317.49 166.372 318.21C165.372 318.91 164.042 319.26 162.382 319.26L162.832 318.48C164.732 318.48 166.142 318.83 167.062 319.53C167.982 320.23 168.442 321.26 168.442 322.62C168.442 324 167.922 325.08 166.882 325.86C165.862 326.62 164.292 327 162.172 327H154.522ZM157.342 324.78H161.962C163.162 324.78 164.062 324.6 164.662 324.24C165.262 323.86 165.562 323.26 165.562 322.44C165.562 321.6 165.282 320.99 164.722 320.61C164.182 320.21 163.322 320.01 162.142 320.01H157.342V324.78ZM157.342 317.94H161.662C162.762 317.94 163.592 317.74 164.152 317.34C164.732 316.92 165.022 316.34 165.022 315.6C165.022 314.84 164.732 314.27 164.152 313.89C163.592 313.51 162.762 313.32 161.662 313.32H157.342V317.94ZM188.67 327V311.1H191.55V327H188.67ZM180.12 316.5C182.14 316.52 183.67 316.98 184.71 317.88C185.77 318.78 186.3 320.05 186.3 321.69C186.3 323.41 185.72 324.74 184.56 325.68C183.42 326.6 181.78 327.05 179.64 327.03L172.95 327V311.1H175.83V316.47L180.12 316.5ZM179.43 324.84C180.71 324.86 181.69 324.6 182.37 324.06C183.05 323.52 183.39 322.72 183.39 321.66C183.39 320.62 183.05 319.86 182.37 319.38C181.71 318.9 180.73 318.65 179.43 318.63L175.83 318.57V324.81L179.43 324.84ZM197.149 327V311.1H200.029V322.68L209.779 311.1H212.389V327H209.509V315.42L199.789 327H197.149ZM204.589 309.03C203.129 309.03 201.979 308.68 201.139 307.98C200.319 307.26 199.899 306.23 199.879 304.89H201.829C201.849 305.65 202.099 306.25 202.579 306.69C203.079 307.13 203.739 307.35 204.559 307.35C205.379 307.35 206.039 307.13 206.539 306.69C207.039 306.25 207.299 305.65 207.319 304.89H209.329C209.309 306.23 208.879 307.26 208.039 307.98C207.199 308.68 206.049 309.03 204.589 309.03ZM226.036 327V311.1H240.766V327H237.886V312.9L238.576 313.62H228.226L228.916 312.9V327H226.036ZM253.149 327.18C251.549 327.18 250.129 326.83 248.889 326.13C247.649 325.43 246.669 324.47 245.949 323.25C245.229 322.01 244.869 320.61 244.869 319.05C244.869 317.47 245.229 316.07 245.949 314.85C246.669 313.63 247.649 312.68 248.889 312C250.129 311.3 251.549 310.95 253.149 310.95C254.729 310.95 256.139 311.3 257.379 312C258.639 312.68 259.619 313.63 260.319 314.85C261.039 316.05 261.399 317.45 261.399 319.05C261.399 320.63 261.039 322.03 260.319 323.25C259.619 324.47 258.639 325.43 257.379 326.13C256.139 326.83 254.729 327.18 253.149 327.18ZM253.149 324.66C254.169 324.66 255.079 324.43 255.879 323.97C256.699 323.51 257.339 322.86 257.799 322.02C258.259 321.16 258.489 320.17 258.489 319.05C258.489 317.91 258.259 316.93 257.799 316.11C257.339 315.27 256.699 314.62 255.879 314.16C255.079 313.7 254.169 313.47 253.149 313.47C252.129 313.47 251.219 313.7 250.419 314.16C249.619 314.62 248.979 315.27 248.499 316.11C248.019 316.93 247.779 317.91 247.779 319.05C247.779 320.17 248.019 321.16 248.499 322.02C248.979 322.86 249.619 323.51 250.419 323.97C251.219 324.43 252.129 324.66 253.149 324.66ZM272.488 327.18C270.868 327.18 269.418 326.83 268.138 326.13C266.878 325.43 265.888 324.47 265.168 323.25C264.448 322.03 264.088 320.63 264.088 319.05C264.088 317.47 264.448 316.07 265.168 314.85C265.888 313.63 266.878 312.68 268.138 312C269.418 311.3 270.868 310.95 272.488 310.95C273.928 310.95 275.208 311.24 276.328 311.82C277.468 312.38 278.348 313.22 278.968 314.34L276.778 315.75C276.258 314.97 275.618 314.4 274.858 314.04C274.118 313.66 273.318 313.47 272.458 313.47C271.418 313.47 270.488 313.7 269.668 314.16C268.848 314.62 268.198 315.27 267.718 316.11C267.238 316.93 266.998 317.91 266.998 319.05C266.998 320.19 267.238 321.18 267.718 322.02C268.198 322.86 268.848 323.51 269.668 323.97C270.488 324.43 271.418 324.66 272.458 324.66C273.318 324.66 274.118 324.48 274.858 324.12C275.618 323.74 276.258 323.16 276.778 322.38L278.968 323.76C278.348 324.86 277.468 325.71 276.328 326.31C275.208 326.89 273.928 327.18 272.488 327.18ZM285.641 327V312.87L286.361 313.62H279.821V311.1H294.341V313.62H287.831L288.521 312.87V327H285.641ZM307.036 327V323.64L306.886 323.01V317.28C306.886 316.06 306.526 315.12 305.806 314.46C305.106 313.78 304.046 313.44 302.626 313.44C301.686 313.44 300.766 313.6 299.866 313.92C298.966 314.22 298.206 314.63 297.586 315.15L296.386 312.99C297.206 312.33 298.186 311.83 299.326 311.49C300.486 311.13 301.696 310.95 302.956 310.95C305.136 310.95 306.816 311.48 307.996 312.54C309.176 313.6 309.766 315.22 309.766 317.4V327H307.036ZM301.816 327.18C300.636 327.18 299.596 326.98 298.696 326.58C297.816 326.18 297.136 325.63 296.656 324.93C296.176 324.21 295.936 323.4 295.936 322.5C295.936 321.64 296.136 320.86 296.536 320.16C296.956 319.46 297.626 318.9 298.546 318.48C299.486 318.06 300.746 317.85 302.326 317.85H307.366V319.92H302.446C301.006 319.92 300.036 320.16 299.536 320.64C299.036 321.12 298.786 321.7 298.786 322.38C298.786 323.16 299.096 323.79 299.716 324.27C300.336 324.73 301.196 324.96 302.296 324.96C303.376 324.96 304.316 324.72 305.116 324.24C305.936 323.76 306.526 323.06 306.886 322.14L307.456 324.12C307.076 325.06 306.406 325.81 305.446 326.37C304.486 326.91 303.276 327.18 301.816 327.18ZM314.952 327V311.1H322.332C324.192 311.1 325.652 311.46 326.712 312.18C327.792 312.88 328.332 313.88 328.332 315.18C328.332 316.48 327.822 317.49 326.802 318.21C325.802 318.91 324.472 319.26 322.812 319.26L323.262 318.48C325.162 318.48 326.572 318.83 327.492 319.53C328.412 320.23 328.872 321.26 328.872 322.62C328.872 324 328.352 325.08 327.312 325.86C326.292 326.62 324.722 327 322.602 327H314.952ZM317.772 324.78H322.392C323.592 324.78 324.492 324.6 325.092 324.24C325.692 323.86 325.992 323.26 325.992 322.44C325.992 321.6 325.712 320.99 325.152 320.61C324.612 320.21 323.752 320.01 322.572 320.01H317.772V324.78ZM317.772 317.94H322.092C323.192 317.94 324.022 317.74 324.582 317.34C325.162 316.92 325.452 316.34 325.452 315.6C325.452 314.84 325.162 314.27 324.582 313.89C324.022 313.51 323.192 313.32 322.092 313.32H317.772V317.94ZM343.94 324.48L343.28 325.23V311.1H346.16V325.23L345.44 324.48H353.84L353.15 325.23V311.1H356.03V327H333.38V311.1H336.26V325.23L335.57 324.48H343.94ZM355.67 330.39V326.25L356.36 327H353V324.48H358.37V330.39H355.67ZM361.622 327V311.1H364.502V322.68L374.252 311.1H376.862V327H373.982V315.42L364.262 327H361.622ZM393.972 327L387.822 319.26L390.192 317.82L397.362 327H393.972ZM382.452 327V311.1H385.332V327H382.452ZM384.462 320.28V317.82H389.712V320.28H384.462ZM390.432 319.38L387.762 319.02L393.852 311.1H396.942L390.432 319.38ZM415.368 327.18C413.748 327.18 412.298 326.83 411.018 326.13C409.758 325.43 408.768 324.47 408.048 323.25C407.328 322.03 406.968 320.63 406.968 319.05C406.968 317.47 407.328 316.07 408.048 314.85C408.768 313.63 409.758 312.68 411.018 312C412.298 311.3 413.748 310.95 415.368 310.95C416.808 310.95 418.088 311.24 419.208 311.82C420.348 312.38 421.228 313.22 421.848 314.34L419.658 315.75C419.138 314.97 418.498 314.4 417.738 314.04C416.998 313.66 416.198 313.47 415.338 313.47C414.298 313.47 413.368 313.7 412.548 314.16C411.728 314.62 411.078 315.27 410.598 316.11C410.118 316.93 409.878 317.91 409.878 319.05C409.878 320.19 410.118 321.18 410.598 322.02C411.078 322.86 411.728 323.51 412.548 323.97C413.368 324.43 414.298 324.66 415.338 324.66C416.198 324.66 416.998 324.48 417.738 324.12C418.498 323.74 419.138 323.16 419.658 322.38L421.848 323.76C421.228 324.86 420.348 325.71 419.208 326.31C418.088 326.89 416.808 327.18 415.368 327.18ZM425.577 327V311.1H428.547L435.387 322.86H434.187L441.207 311.1H443.907V327H441.297V314.34L441.777 314.61L435.357 325.2H434.097L427.647 314.4L428.217 314.28V327H425.577ZM459.263 327V323.64L459.113 323.01V317.28C459.113 316.06 458.753 315.12 458.033 314.46C457.333 313.78 456.273 313.44 454.853 313.44C453.913 313.44 452.993 313.6 452.093 313.92C451.193 314.22 450.433 314.63 449.813 315.15L448.613 312.99C449.433 312.33 450.413 311.83 451.553 311.49C452.713 311.13 453.923 310.95 455.183 310.95C457.363 310.95 459.043 311.48 460.223 312.54C461.403 313.6 461.993 315.22 461.993 317.4V327H459.263ZM454.043 327.18C452.863 327.18 451.823 326.98 450.923 326.58C450.043 326.18 449.363 325.63 448.883 324.93C448.403 324.21 448.163 323.4 448.163 322.5C448.163 321.64 448.363 320.86 448.763 320.16C449.183 319.46 449.853 318.9 450.773 318.48C451.713 318.06 452.973 317.85 454.553 317.85H459.593V319.92H454.673C453.233 319.92 452.263 320.16 451.763 320.64C451.263 321.12 451.013 321.7 451.013 322.38C451.013 323.16 451.323 323.79 451.943 324.27C452.563 324.73 453.423 324.96 454.523 324.96C455.603 324.96 456.543 324.72 457.343 324.24C458.163 323.76 458.753 323.06 459.113 322.14L459.683 324.12C459.303 325.06 458.633 325.81 457.673 326.37C456.713 326.91 455.503 327.18 454.043 327.18ZM471.565 327.21C470.365 327.21 469.185 327.06 468.025 326.76C466.885 326.44 465.865 325.99 464.965 325.41L465.835 323.22C466.595 323.7 467.465 324.08 468.445 324.36C469.425 324.62 470.415 324.75 471.415 324.75C472.335 324.75 473.125 324.64 473.785 324.42C474.465 324.2 474.985 323.9 475.345 323.52C475.705 323.12 475.885 322.66 475.885 322.14C475.885 321.4 475.555 320.83 474.895 320.43C474.235 320.03 473.315 319.83 472.135 319.83H469.255V317.76H471.955C472.655 317.76 473.265 317.68 473.785 317.52C474.305 317.36 474.705 317.12 474.985 316.8C475.285 316.46 475.435 316.07 475.435 315.63C475.435 315.15 475.265 314.74 474.925 314.4C474.585 314.06 474.105 313.8 473.485 313.62C472.885 313.44 472.175 313.35 471.355 313.35C470.555 313.37 469.735 313.48 468.895 313.68C468.075 313.88 467.235 314.19 466.375 314.61L465.595 312.36C466.555 311.9 467.495 311.55 468.415 311.31C469.355 311.05 470.285 310.91 471.205 310.89C472.585 310.85 473.815 311.01 474.895 311.37C475.975 311.71 476.825 312.21 477.445 312.87C478.085 313.53 478.405 314.31 478.405 315.21C478.405 315.97 478.165 316.65 477.685 317.25C477.205 317.83 476.565 318.29 475.765 318.63C474.965 318.97 474.045 319.14 473.005 319.14L473.125 318.45C474.905 318.45 476.305 318.8 477.325 319.5C478.345 320.2 478.855 321.15 478.855 322.35C478.855 323.31 478.535 324.16 477.895 324.9C477.255 325.62 476.385 326.19 475.285 326.61C474.205 327.01 472.965 327.21 471.565 327.21ZM490.043 327.18C488.443 327.18 487.023 326.83 485.783 326.13C484.543 325.43 483.563 324.47 482.843 323.25C482.123 322.01 481.763 320.61 481.763 319.05C481.763 317.47 482.123 316.07 482.843 314.85C483.563 313.63 484.543 312.68 485.783 312C487.023 311.3 488.443 310.95 490.043 310.95C491.623 310.95 493.033 311.3 494.273 312C495.533 312.68 496.513 313.63 497.213 314.85C497.933 316.05 498.293 317.45 498.293 319.05C498.293 320.63 497.933 322.03 497.213 323.25C496.513 324.47 495.533 325.43 494.273 326.13C493.033 326.83 491.623 327.18 490.043 327.18ZM490.043 324.66C491.063 324.66 491.973 324.43 492.773 323.97C493.593 323.51 494.233 322.86 494.693 322.02C495.153 321.16 495.383 320.17 495.383 319.05C495.383 317.91 495.153 316.93 494.693 316.11C494.233 315.27 493.593 314.62 492.773 314.16C491.973 313.7 491.063 313.47 490.043 313.47C489.023 313.47 488.113 313.7 487.313 314.16C486.513 314.62 485.873 315.27 485.393 316.11C484.913 316.93 484.673 317.91 484.673 319.05C484.673 320.17 484.913 321.16 485.393 322.02C485.873 322.86 486.513 323.51 487.313 323.97C488.113 324.43 489.023 324.66 490.043 324.66ZM513.972 327L507.822 319.26L510.192 317.82L517.362 327H513.972ZM502.452 327V311.1H505.332V327H502.452ZM504.462 320.28V317.82H509.712V320.28H504.462ZM510.432 319.38L507.762 319.02L513.852 311.1H516.942L510.432 319.38ZM519.182 331.44L520.682 325.38L521.072 327.12C520.492 327.12 520.002 326.94 519.602 326.58C519.222 326.22 519.032 325.73 519.032 325.11C519.032 324.51 519.222 324.02 519.602 323.64C520.002 323.26 520.482 323.07 521.042 323.07C521.622 323.07 522.092 323.27 522.452 323.67C522.812 324.05 522.992 324.53 522.992 325.11C522.992 325.31 522.972 325.51 522.932 325.71C522.912 325.89 522.862 326.11 522.782 326.37C522.722 326.61 522.622 326.91 522.482 327.27L521.072 331.44H519.182ZM535.235 327V311.1H538.205L545.045 322.86H543.845L550.865 311.1H553.565V327H550.955V314.34L551.435 314.61L545.015 325.2H543.755L537.305 314.4L537.875 314.28V327H535.235ZM568.921 327V323.64L568.771 323.01V317.28C568.771 316.06 568.411 315.12 567.691 314.46C566.991 313.78 565.931 313.44 564.511 313.44C563.571 313.44 562.651 313.6 561.751 313.92C560.851 314.22 560.091 314.63 559.471 315.15L558.271 312.99C559.091 312.33 560.071 311.83 561.211 311.49C562.371 311.13 563.581 310.95 564.841 310.95C567.021 310.95 568.701 311.48 569.881 312.54C571.061 313.6 571.651 315.22 571.651 317.4V327H568.921ZM563.701 327.18C562.521 327.18 561.481 326.98 560.581 326.58C559.701 326.18 559.021 325.63 558.541 324.93C558.061 324.21 557.821 323.4 557.821 322.5C557.821 321.64 558.021 320.86 558.421 320.16C558.841 319.46 559.511 318.9 560.431 318.48C561.371 318.06 562.631 317.85 564.211 317.85H569.251V319.92H564.331C562.891 319.92 561.921 320.16 561.421 320.64C560.921 321.12 560.671 321.7 560.671 322.38C560.671 323.16 560.981 323.79 561.601 324.27C562.221 324.73 563.081 324.96 564.181 324.96C565.261 324.96 566.201 324.72 567.001 324.24C567.821 323.76 568.411 323.06 568.771 322.14L569.341 324.12C568.961 325.06 568.291 325.81 567.331 326.37C566.371 326.91 565.161 327.18 563.701 327.18ZM583.767 327.18C582.147 327.18 580.697 326.83 579.417 326.13C578.157 325.43 577.167 324.47 576.447 323.25C575.727 322.03 575.367 320.63 575.367 319.05C575.367 317.47 575.727 316.07 576.447 314.85C577.167 313.63 578.157 312.68 579.417 312C580.697 311.3 582.147 310.95 583.767 310.95C585.207 310.95 586.487 311.24 587.607 311.82C588.747 312.38 589.627 313.22 590.247 314.34L588.057 315.75C587.537 314.97 586.897 314.4 586.137 314.04C585.397 313.66 584.597 313.47 583.737 313.47C582.697 313.47 581.767 313.7 580.947 314.16C580.127 314.62 579.477 315.27 578.997 316.11C578.517 316.93 578.277 317.91 578.277 319.05C578.277 320.19 578.517 321.18 578.997 322.02C579.477 322.86 580.127 323.51 580.947 323.97C581.767 324.43 582.697 324.66 583.737 324.66C584.597 324.66 585.397 324.48 586.137 324.12C586.897 323.74 587.537 323.16 588.057 322.38L590.247 323.76C589.627 324.86 588.747 325.71 587.607 326.31C586.487 326.89 585.207 327.18 583.767 327.18ZM600.821 327.18C599.121 327.18 597.621 326.83 596.321 326.13C595.041 325.43 594.041 324.47 593.321 323.25C592.621 322.03 592.271 320.63 592.271 319.05C592.271 317.47 592.611 316.07 593.291 314.85C593.991 313.63 594.941 312.68 596.141 312C597.361 311.3 598.731 310.95 600.251 310.95C601.791 310.95 603.151 311.29 604.331 311.97C605.511 312.65 606.431 313.61 607.091 314.85C607.771 316.07 608.111 317.5 608.111 319.14C608.111 319.26 608.101 319.4 608.081 319.56C608.081 319.72 608.071 319.87 608.051 320.01H594.521V317.94H606.551L605.381 318.66C605.401 317.64 605.191 316.73 604.751 315.93C604.311 315.13 603.701 314.51 602.921 314.07C602.161 313.61 601.271 313.38 600.251 313.38C599.251 313.38 598.361 313.61 597.581 314.07C596.801 314.51 596.191 315.14 595.751 315.96C595.311 316.76 595.091 317.68 595.091 318.72V319.2C595.091 320.26 595.331 321.21 595.811 322.05C596.311 322.87 597.001 323.51 597.881 323.97C598.761 324.43 599.771 324.66 600.911 324.66C601.851 324.66 602.701 324.5 603.461 324.18C604.241 323.86 604.921 323.38 605.501 322.74L607.091 324.6C606.371 325.44 605.471 326.08 604.391 326.52C603.331 326.96 602.141 327.18 600.821 327.18ZM609.675 326.97L609.855 324.54C609.995 324.56 610.125 324.58 610.245 324.6C610.365 324.62 610.475 324.63 610.575 324.63C611.215 324.63 611.715 324.41 612.075 323.97C612.455 323.53 612.735 322.95 612.915 322.23C613.095 321.49 613.225 320.66 613.305 319.74C613.385 318.82 613.445 317.9 613.485 316.98L613.755 311.1H625.965V327H623.085V312.78L623.775 313.62H615.615L616.275 312.75L616.065 317.16C616.005 318.56 615.895 319.87 615.735 321.09C615.575 322.31 615.325 323.38 614.985 324.3C614.665 325.22 614.215 325.94 613.635 326.46C613.075 326.98 612.345 327.24 611.445 327.24C611.185 327.24 610.905 327.21 610.605 327.15C610.325 327.11 610.015 327.05 609.675 326.97ZM650.451 325.65V313.62H643.551L643.401 316.68C643.361 317.68 643.291 318.65 643.191 319.59C643.111 320.51 642.971 321.36 642.771 322.14C642.591 322.92 642.321 323.56 641.961 324.06C641.601 324.56 641.121 324.87 640.521 324.99L637.671 324.48C638.291 324.5 638.791 324.3 639.171 323.88C639.551 323.44 639.841 322.84 640.041 322.08C640.261 321.32 640.421 320.46 640.521 319.5C640.621 318.52 640.701 317.51 640.761 316.47L641.001 311.1H653.331V325.65H650.451ZM637.041 330.69V324.48H655.761V330.69H653.061V327H639.771V330.69H637.041ZM656.873 326.97L657.053 324.54C657.193 324.56 657.323 324.58 657.443 324.6C657.563 324.62 657.673 324.63 657.773 324.63C658.413 324.63 658.913 324.41 659.273 323.97C659.653 323.53 659.933 322.95 660.113 322.23C660.293 321.49 660.423 320.66 660.503 319.74C660.583 318.82 660.643 317.9 660.683 316.98L660.953 311.1H673.163V327H670.283V312.78L670.973 313.62H662.813L663.473 312.75L663.263 317.16C663.203 318.56 663.093 319.87 662.933 321.09C662.773 322.31 662.523 323.38 662.183 324.3C661.863 325.22 661.413 325.94 660.833 326.46C660.273 326.98 659.543 327.24 658.643 327.24C658.383 327.24 658.103 327.21 657.803 327.15C657.523 327.11 657.213 327.05 656.873 326.97ZM688.901 327V321.42L689.351 321.96H684.281C682.161 321.96 680.501 321.51 679.301 320.61C678.121 319.71 677.531 318.4 677.531 316.68C677.531 314.84 678.161 313.45 679.421 312.51C680.701 311.57 682.401 311.1 684.521 311.1H691.481V327H688.901ZM677.381 327L681.701 320.91H684.671L680.471 327H677.381ZM688.901 320.52V312.81L689.351 313.62H684.611C683.291 313.62 682.271 313.87 681.551 314.37C680.831 314.85 680.471 315.65 680.471 316.77C680.471 318.85 681.811 319.89 684.491 319.89H689.351L688.901 320.52ZM15.0706 364.18C13.4506 364.18 12.0006 363.83 10.7206 363.13C9.46059 362.43 8.47059 361.47 7.75059 360.25C7.03059 359.03 6.67059 357.63 6.67059 356.05C6.67059 354.47 7.03059 353.07 7.75059 351.85C8.47059 350.63 9.46059 349.68 10.7206 349C12.0006 348.3 13.4506 347.95 15.0706 347.95C16.5106 347.95 17.7906 348.24 18.9106 348.82C20.0506 349.38 20.9306 350.22 21.5506 351.34L19.3606 352.75C18.8406 351.97 18.2006 351.4 17.4406 351.04C16.7006 350.66 15.9006 350.47 15.0406 350.47C14.0006 350.47 13.0706 350.7 12.2506 351.16C11.4306 351.62 10.7806 352.27 10.3006 353.11C9.82059 353.93 9.58059 354.91 9.58059 356.05C9.58059 357.19 9.82059 358.18 10.3006 359.02C10.7806 359.86 11.4306 360.51 12.2506 360.97C13.0706 361.43 14.0006 361.66 15.0406 361.66C15.9006 361.66 16.7006 361.48 17.4406 361.12C18.2006 360.74 18.8406 360.16 19.3606 359.38L21.5506 360.76C20.9306 361.86 20.0506 362.71 18.9106 363.31C17.7906 363.89 16.5106 364.18 15.0706 364.18ZM32.1249 364.18C30.4249 364.18 28.9249 363.83 27.6249 363.13C26.3449 362.43 25.3449 361.47 24.6249 360.25C23.9249 359.03 23.5749 357.63 23.5749 356.05C23.5749 354.47 23.9149 353.07 24.5949 351.85C25.2949 350.63 26.2449 349.68 27.4449 349C28.6649 348.3 30.0349 347.95 31.5549 347.95C33.0949 347.95 34.4549 348.29 35.6349 348.97C36.8149 349.65 37.7349 350.61 38.3949 351.85C39.0749 353.07 39.4149 354.5 39.4149 356.14C39.4149 356.26 39.4049 356.4 39.3849 356.56C39.3849 356.72 39.3749 356.87 39.3549 357.01H25.8249V354.94H37.8549L36.6849 355.66C36.7049 354.64 36.4949 353.73 36.0549 352.93C35.6149 352.13 35.0049 351.51 34.2249 351.07C33.4649 350.61 32.5749 350.38 31.5549 350.38C30.5549 350.38 29.6649 350.61 28.8849 351.07C28.1049 351.51 27.4949 352.14 27.0549 352.96C26.6149 353.76 26.3949 354.68 26.3949 355.72V356.2C26.3949 357.26 26.6349 358.21 27.1149 359.05C27.6149 359.87 28.3049 360.51 29.1849 360.97C30.0649 361.43 31.0749 361.66 32.2149 361.66C33.1549 361.66 34.0049 361.5 34.7649 361.18C35.5449 360.86 36.2249 360.38 36.8049 359.74L38.3949 361.6C37.6749 362.44 36.7749 363.08 35.6949 363.52C34.6349 363.96 33.4449 364.18 32.1249 364.18ZM40.9791 363.97L41.1591 361.54C41.2991 361.56 41.4291 361.58 41.5491 361.6C41.6691 361.62 41.7791 361.63 41.8791 361.63C42.5191 361.63 43.0191 361.41 43.3791 360.97C43.7591 360.53 44.0391 359.95 44.2191 359.23C44.3991 358.49 44.5291 357.66 44.6091 356.74C44.6891 355.82 44.7491 354.9 44.7891 353.98L45.0591 348.1H57.2691V364H54.3891V349.78L55.0791 350.62H46.9191L47.5791 349.75L47.3691 354.16C47.3091 355.56 47.1991 356.87 47.0391 358.09C46.8791 359.31 46.6291 360.38 46.2891 361.3C45.9691 362.22 45.5191 362.94 44.9391 363.46C44.3791 363.98 43.6491 364.24 42.7491 364.24C42.4891 364.24 42.2091 364.21 41.9091 364.15C41.6291 364.11 41.3191 364.05 40.9791 363.97ZM70.1879 353.5C72.2079 353.52 73.7479 353.98 74.8079 354.88C75.8679 355.78 76.3979 357.05 76.3979 358.69C76.3979 360.41 75.8179 361.74 74.6579 362.68C73.4979 363.6 71.8579 364.05 69.7379 364.03L62.8379 364V348.1H65.7179V353.47L70.1879 353.5ZM69.4979 361.84C70.7979 361.86 71.7779 361.6 72.4379 361.06C73.1179 360.52 73.4579 359.72 73.4579 358.66C73.4579 357.62 73.1279 356.86 72.4679 356.38C71.8079 355.9 70.8179 355.65 69.4979 355.63L65.7179 355.57V361.81L69.4979 361.84ZM87.0237 364.18C85.4037 364.18 83.9537 363.83 82.6737 363.13C81.4137 362.43 80.4237 361.47 79.7037 360.25C78.9837 359.03 78.6237 357.63 78.6237 356.05C78.6237 354.47 78.9837 353.07 79.7037 351.85C80.4237 350.63 81.4137 349.68 82.6737 349C83.9537 348.3 85.4037 347.95 87.0237 347.95C88.4637 347.95 89.7437 348.24 90.8637 348.82C92.0037 349.38 92.8837 350.22 93.5037 351.34L91.3137 352.75C90.7937 351.97 90.1537 351.4 89.3937 351.04C88.6537 350.66 87.8537 350.47 86.9937 350.47C85.9537 350.47 85.0237 350.7 84.2037 351.16C83.3837 351.62 82.7337 352.27 82.2537 353.11C81.7737 353.93 81.5337 354.91 81.5337 356.05C81.5337 357.19 81.7737 358.18 82.2537 359.02C82.7337 359.86 83.3837 360.51 84.2037 360.97C85.0237 361.43 85.9537 361.66 86.9937 361.66C87.8537 361.66 88.6537 361.48 89.3937 361.12C90.1537 360.74 90.7937 360.16 91.3137 359.38L93.5037 360.76C92.8837 361.86 92.0037 362.71 90.8637 363.31C89.7437 363.89 88.4637 364.18 87.0237 364.18ZM108.752 364L102.602 356.26L104.972 354.82L112.142 364H108.752ZM97.2324 364V348.1H100.112V364H97.2324ZM99.2424 357.28V354.82H104.492V357.28H99.2424ZM105.212 356.38L102.542 356.02L108.632 348.1H111.722L105.212 356.38ZM121.445 364.18C119.845 364.18 118.425 363.83 117.185 363.13C115.945 362.43 114.965 361.47 114.245 360.25C113.525 359.01 113.165 357.61 113.165 356.05C113.165 354.47 113.525 353.07 114.245 351.85C114.965 350.63 115.945 349.68 117.185 349C118.425 348.3 119.845 347.95 121.445 347.95C123.025 347.95 124.435 348.3 125.675 349C126.935 349.68 127.915 350.63 128.615 351.85C129.335 353.05 129.695 354.45 129.695 356.05C129.695 357.63 129.335 359.03 128.615 360.25C127.915 361.47 126.935 362.43 125.675 363.13C124.435 363.83 123.025 364.18 121.445 364.18ZM121.445 361.66C122.465 361.66 123.375 361.43 124.175 360.97C124.995 360.51 125.635 359.86 126.095 359.02C126.555 358.16 126.785 357.17 126.785 356.05C126.785 354.91 126.555 353.93 126.095 353.11C125.635 352.27 124.995 351.62 124.175 351.16C123.375 350.7 122.465 350.47 121.445 350.47C120.425 350.47 119.515 350.7 118.715 351.16C117.915 351.62 117.275 352.27 116.795 353.11C116.315 353.93 116.075 354.91 116.075 356.05C116.075 357.17 116.315 358.16 116.795 359.02C117.275 359.86 117.915 360.51 118.715 360.97C119.515 361.43 120.425 361.66 121.445 361.66ZM130.806 364L137.646 355.12L137.616 356.59L131.106 348.1H134.316L139.296 354.64H138.066L143.046 348.1H146.196L139.596 356.65L139.626 355.12L146.526 364H143.256L138.006 357.04L139.176 357.22L134.016 364H130.806ZM155.839 364.18C154.239 364.18 152.819 363.83 151.579 363.13C150.339 362.43 149.359 361.47 148.639 360.25C147.919 359.01 147.559 357.61 147.559 356.05C147.559 354.47 147.919 353.07 148.639 351.85C149.359 350.63 150.339 349.68 151.579 349C152.819 348.3 154.239 347.95 155.839 347.95C157.419 347.95 158.829 348.3 160.069 349C161.329 349.68 162.309 350.63 163.009 351.85C163.729 353.05 164.089 354.45 164.089 356.05C164.089 357.63 163.729 359.03 163.009 360.25C162.309 361.47 161.329 362.43 160.069 363.13C158.829 363.83 157.419 364.18 155.839 364.18ZM155.839 361.66C156.859 361.66 157.769 361.43 158.569 360.97C159.389 360.51 160.029 359.86 160.489 359.02C160.949 358.16 161.179 357.17 161.179 356.05C161.179 354.91 160.949 353.93 160.489 353.11C160.029 352.27 159.389 351.62 158.569 351.16C157.769 350.7 156.859 350.47 155.839 350.47C154.819 350.47 153.909 350.7 153.109 351.16C152.309 351.62 151.669 352.27 151.189 353.11C150.709 353.93 150.469 354.91 150.469 356.05C150.469 357.17 150.709 358.16 151.189 359.02C151.669 359.86 152.309 360.51 153.109 360.97C153.909 361.43 154.819 361.66 155.839 361.66ZM172.722 364.21C171.522 364.21 170.342 364.06 169.182 363.76C168.042 363.44 167.022 362.99 166.122 362.41L166.992 360.22C167.752 360.7 168.622 361.08 169.602 361.36C170.582 361.62 171.572 361.75 172.572 361.75C173.492 361.75 174.282 361.64 174.942 361.42C175.622 361.2 176.142 360.9 176.502 360.52C176.862 360.12 177.042 359.66 177.042 359.14C177.042 358.4 176.712 357.83 176.052 357.43C175.392 357.03 174.472 356.83 173.292 356.83H170.412V354.76H173.112C173.812 354.76 174.422 354.68 174.942 354.52C175.462 354.36 175.862 354.12 176.142 353.8C176.442 353.46 176.592 353.07 176.592 352.63C176.592 352.15 176.422 351.74 176.082 351.4C175.742 351.06 175.262 350.8 174.642 350.62C174.042 350.44 173.332 350.35 172.512 350.35C171.712 350.37 170.892 350.48 170.052 350.68C169.232 350.88 168.392 351.19 167.532 351.61L166.752 349.36C167.712 348.9 168.652 348.55 169.572 348.31C170.512 348.05 171.442 347.91 172.362 347.89C173.742 347.85 174.972 348.01 176.052 348.37C177.132 348.71 177.982 349.21 178.602 349.87C179.242 350.53 179.562 351.31 179.562 352.21C179.562 352.97 179.322 353.65 178.842 354.25C178.362 354.83 177.722 355.29 176.922 355.63C176.122 355.97 175.202 356.14 174.162 356.14L174.282 355.45C176.062 355.45 177.462 355.8 178.482 356.5C179.502 357.2 180.012 358.15 180.012 359.35C180.012 360.31 179.692 361.16 179.052 361.9C178.412 362.62 177.542 363.19 176.442 363.61C175.362 364.01 174.122 364.21 172.722 364.21ZM194.561 364V358.42L195.011 358.96H189.941C187.821 358.96 186.161 358.51 184.961 357.61C183.781 356.71 183.191 355.4 183.191 353.68C183.191 351.84 183.821 350.45 185.081 349.51C186.361 348.57 188.061 348.1 190.181 348.1H197.141V364H194.561ZM183.041 364L187.361 357.91H190.331L186.131 364H183.041ZM194.561 357.52V349.81L195.011 350.62H190.271C188.951 350.62 187.931 350.87 187.211 351.37C186.491 351.85 186.131 352.65 186.131 353.77C186.131 355.85 187.471 356.89 190.151 356.89H195.011L194.561 357.52ZM202.76 364V348.1H205.64V359.68L215.39 348.1H218V364H215.12V352.42L205.4 364H202.76ZM210.2 346.03C208.74 346.03 207.59 345.68 206.75 344.98C205.93 344.26 205.51 343.23 205.49 341.89H207.44C207.46 342.65 207.71 343.25 208.19 343.69C208.69 344.13 209.35 344.35 210.17 344.35C210.99 344.35 211.65 344.13 212.15 343.69C212.65 343.25 212.91 342.65 212.93 341.89H214.94C214.92 343.23 214.49 344.26 213.65 344.98C212.81 345.68 211.66 346.03 210.2 346.03ZM230.52 364.18C228.9 364.18 227.45 363.83 226.17 363.13C224.91 362.43 223.92 361.47 223.2 360.25C222.48 359.03 222.12 357.63 222.12 356.05C222.12 354.47 222.48 353.07 223.2 351.85C223.92 350.63 224.91 349.68 226.17 349C227.45 348.3 228.9 347.95 230.52 347.95C231.96 347.95 233.24 348.24 234.36 348.82C235.5 349.38 236.38 350.22 237 351.34L234.81 352.75C234.29 351.97 233.65 351.4 232.89 351.04C232.15 350.66 231.35 350.47 230.49 350.47C229.45 350.47 228.52 350.7 227.7 351.16C226.88 351.62 226.23 352.27 225.75 353.11C225.27 353.93 225.03 354.91 225.03 356.05C225.03 357.19 225.27 358.18 225.75 359.02C226.23 359.86 226.88 360.51 227.7 360.97C228.52 361.43 229.45 361.66 230.49 361.66C231.35 361.66 232.15 361.48 232.89 361.12C233.65 360.74 234.29 360.16 234.81 359.38L237 360.76C236.38 361.86 235.5 362.71 234.36 363.31C233.24 363.89 231.96 364.18 230.52 364.18ZM240.728 364V348.1H248.108C249.968 348.1 251.428 348.46 252.488 349.18C253.568 349.88 254.108 350.88 254.108 352.18C254.108 353.48 253.598 354.49 252.578 355.21C251.578 355.91 250.248 356.26 248.588 356.26L249.038 355.48C250.938 355.48 252.348 355.83 253.268 356.53C254.188 357.23 254.648 358.26 254.648 359.62C254.648 361 254.128 362.08 253.088 362.86C252.068 363.62 250.498 364 248.378 364H240.728ZM243.548 361.78H248.168C249.368 361.78 250.268 361.6 250.868 361.24C251.468 360.86 251.768 360.26 251.768 359.44C251.768 358.6 251.488 357.99 250.928 357.61C250.388 357.21 249.528 357.01 248.348 357.01H243.548V361.78ZM243.548 354.94H247.868C248.968 354.94 249.798 354.74 250.358 354.34C250.938 353.92 251.228 353.34 251.228 352.6C251.228 351.84 250.938 351.27 250.358 350.89C249.798 350.51 248.968 350.32 247.868 350.32H243.548V354.94ZM262.306 364V349.87L263.026 350.62H256.486V348.1H271.006V350.62H264.496L265.186 349.87V364H262.306ZM280.328 364.18C278.628 364.18 277.128 363.83 275.828 363.13C274.548 362.43 273.548 361.47 272.828 360.25C272.128 359.03 271.778 357.63 271.778 356.05C271.778 354.47 272.118 353.07 272.798 351.85C273.498 350.63 274.448 349.68 275.648 349C276.868 348.3 278.238 347.95 279.758 347.95C281.298 347.95 282.658 348.29 283.838 348.97C285.018 349.65 285.938 350.61 286.598 351.85C287.278 353.07 287.618 354.5 287.618 356.14C287.618 356.26 287.608 356.4 287.588 356.56C287.588 356.72 287.578 356.87 287.558 357.01H274.028V354.94H286.058L284.888 355.66C284.908 354.64 284.698 353.73 284.258 352.93C283.818 352.13 283.208 351.51 282.428 351.07C281.668 350.61 280.778 350.38 279.758 350.38C278.758 350.38 277.868 350.61 277.088 351.07C276.308 351.51 275.698 352.14 275.258 352.96C274.818 353.76 274.598 354.68 274.598 355.72V356.2C274.598 357.26 274.838 358.21 275.318 359.05C275.818 359.87 276.508 360.51 277.388 360.97C278.268 361.43 279.278 361.66 280.418 361.66C281.358 361.66 282.208 361.5 282.968 361.18C283.748 360.86 284.428 360.38 285.008 359.74L286.598 361.6C285.878 362.44 284.978 363.08 283.898 363.52C282.838 363.96 281.648 364.18 280.328 364.18ZM292.086 364V348.1H294.966V354.85H304.026V348.1H306.906V364H304.026V357.34H294.966V364H292.086ZM312.506 364V348.1H315.386V354.85H324.446V348.1H327.326V364H324.446V357.34H315.386V364H312.506ZM339.736 364.18C338.136 364.18 336.716 363.83 335.476 363.13C334.236 362.43 333.256 361.47 332.536 360.25C331.816 359.01 331.456 357.61 331.456 356.05C331.456 354.47 331.816 353.07 332.536 351.85C333.256 350.63 334.236 349.68 335.476 349C336.716 348.3 338.136 347.95 339.736 347.95C341.316 347.95 342.726 348.3 343.966 349C345.226 349.68 346.206 350.63 346.906 351.85C347.626 353.05 347.986 354.45 347.986 356.05C347.986 357.63 347.626 359.03 346.906 360.25C346.206 361.47 345.226 362.43 343.966 363.13C342.726 363.83 341.316 364.18 339.736 364.18ZM339.736 361.66C340.756 361.66 341.666 361.43 342.466 360.97C343.286 360.51 343.926 359.86 344.386 359.02C344.846 358.16 345.076 357.17 345.076 356.05C345.076 354.91 344.846 353.93 344.386 353.11C343.926 352.27 343.286 351.62 342.466 351.16C341.666 350.7 340.756 350.47 339.736 350.47C338.716 350.47 337.806 350.7 337.006 351.16C336.206 351.62 335.566 352.27 335.086 353.11C334.606 353.93 334.366 354.91 334.366 356.05C334.366 357.17 334.606 358.16 335.086 359.02C335.566 359.86 336.206 360.51 337.006 360.97C337.806 361.43 338.716 361.66 339.736 361.66ZM352.144 364V348.1H355.024V359.68L364.774 348.1H367.384V364H364.504V352.42L354.784 364H352.144ZM359.584 346.03C358.124 346.03 356.974 345.68 356.134 344.98C355.314 344.26 354.894 343.23 354.874 341.89H356.824C356.844 342.65 357.094 343.25 357.574 343.69C358.074 344.13 358.734 344.35 359.554 344.35C360.374 344.35 361.034 344.13 361.534 343.69C362.034 343.25 362.294 342.65 362.314 341.89H364.324C364.304 343.23 363.874 344.26 363.034 344.98C362.194 345.68 361.044 346.03 359.584 346.03ZM384.181 364V349.87L384.901 350.62H378.361V348.1H392.881V350.62H386.371L387.061 349.87V364H384.181ZM402.203 364.18C400.503 364.18 399.003 363.83 397.703 363.13C396.423 362.43 395.423 361.47 394.703 360.25C394.003 359.03 393.653 357.63 393.653 356.05C393.653 354.47 393.993 353.07 394.673 351.85C395.373 350.63 396.323 349.68 397.523 349C398.743 348.3 400.113 347.95 401.633 347.95C403.173 347.95 404.533 348.29 405.713 348.97C406.893 349.65 407.813 350.61 408.473 351.85C409.153 353.07 409.493 354.5 409.493 356.14C409.493 356.26 409.483 356.4 409.463 356.56C409.463 356.72 409.453 356.87 409.433 357.01H395.903V354.94H407.933L406.763 355.66C406.783 354.64 406.573 353.73 406.133 352.93C405.693 352.13 405.083 351.51 404.303 351.07C403.543 350.61 402.653 350.38 401.633 350.38C400.633 350.38 399.743 350.61 398.963 351.07C398.183 351.51 397.573 352.14 397.133 352.96C396.693 353.76 396.473 354.68 396.473 355.72V356.2C396.473 357.26 396.713 358.21 397.193 359.05C397.693 359.87 398.383 360.51 399.263 360.97C400.143 361.43 401.153 361.66 402.293 361.66C403.233 361.66 404.083 361.5 404.843 361.18C405.623 360.86 406.303 360.38 406.883 359.74L408.473 361.6C407.753 362.44 406.853 363.08 405.773 363.52C404.713 363.96 403.523 364.18 402.203 364.18ZM411.001 364L417.841 355.12L417.811 356.59L411.301 348.1H414.511L419.491 354.64H418.261L423.241 348.1H426.391L419.791 356.65L419.821 355.12L426.721 364H423.451L418.201 357.04L419.371 357.22L414.211 364H411.001ZM429.752 364V348.1H432.632V354.85H441.692V348.1H444.572V364H441.692V357.34H432.632V364H429.752ZM450.172 364V348.1H453.052V359.68L462.802 348.1H465.412V364H462.532V352.42L452.812 364H450.172ZM482.522 364L476.372 356.26L478.742 354.82L485.912 364H482.522ZM471.002 364V348.1H473.882V364H471.002ZM473.012 357.28V354.82H478.262V357.28H473.012ZM478.982 356.38L476.312 356.02L482.402 348.1H485.492L478.982 356.38ZM488.932 364V348.1H491.812V359.68L501.562 348.1H504.172V364H501.292V352.42L491.572 364H488.932ZM517.818 364V348.1H532.548V364H529.668V349.9L530.358 350.62H520.008L520.698 349.9V364H517.818ZM544.931 364.18C543.331 364.18 541.911 363.83 540.671 363.13C539.431 362.43 538.451 361.47 537.731 360.25C537.011 359.01 536.651 357.61 536.651 356.05C536.651 354.47 537.011 353.07 537.731 351.85C538.451 350.63 539.431 349.68 540.671 349C541.911 348.3 543.331 347.95 544.931 347.95C546.511 347.95 547.921 348.3 549.161 349C550.421 349.68 551.401 350.63 552.101 351.85C552.821 353.05 553.181 354.45 553.181 356.05C553.181 357.63 552.821 359.03 552.101 360.25C551.401 361.47 550.421 362.43 549.161 363.13C547.921 363.83 546.511 364.18 544.931 364.18ZM544.931 361.66C545.951 361.66 546.861 361.43 547.661 360.97C548.481 360.51 549.121 359.86 549.581 359.02C550.041 358.16 550.271 357.17 550.271 356.05C550.271 354.91 550.041 353.93 549.581 353.11C549.121 352.27 548.481 351.62 547.661 351.16C546.861 350.7 545.951 350.47 544.931 350.47C543.911 350.47 543.001 350.7 542.201 351.16C541.401 351.62 540.761 352.27 540.281 353.11C539.801 353.93 539.561 354.91 539.561 356.05C539.561 357.17 539.801 358.16 540.281 359.02C540.761 359.86 541.401 360.51 542.201 360.97C543.001 361.43 543.911 361.66 544.931 361.66ZM565.396 364V348.1H572.776C574.636 348.1 576.096 348.46 577.156 349.18C578.236 349.88 578.776 350.88 578.776 352.18C578.776 353.48 578.266 354.49 577.246 355.21C576.246 355.91 574.916 356.26 573.256 356.26L573.706 355.48C575.606 355.48 577.016 355.83 577.936 356.53C578.856 357.23 579.316 358.26 579.316 359.62C579.316 361 578.796 362.08 577.756 362.86C576.736 363.62 575.166 364 573.046 364H565.396ZM568.216 361.78H572.836C574.036 361.78 574.936 361.6 575.536 361.24C576.136 360.86 576.436 360.26 576.436 359.44C576.436 358.6 576.156 357.99 575.596 357.61C575.056 357.21 574.196 357.01 573.016 357.01H568.216V361.78ZM568.216 354.94H572.536C573.636 354.94 574.466 354.74 575.026 354.34C575.606 353.92 575.896 353.34 575.896 352.6C575.896 351.84 575.606 351.27 575.026 350.89C574.466 350.51 573.636 350.32 572.536 350.32H568.216V354.94ZM590.754 364.18C589.134 364.18 587.684 363.83 586.404 363.13C585.144 362.43 584.154 361.47 583.434 360.25C582.714 359.03 582.354 357.63 582.354 356.05C582.354 354.47 582.714 353.07 583.434 351.85C584.154 350.63 585.144 349.68 586.404 349C587.684 348.3 589.134 347.95 590.754 347.95C592.194 347.95 593.474 348.24 594.594 348.82C595.734 349.38 596.614 350.22 597.234 351.34L595.044 352.75C594.524 351.97 593.884 351.4 593.124 351.04C592.384 350.66 591.584 350.47 590.724 350.47C589.684 350.47 588.754 350.7 587.934 351.16C587.114 351.62 586.464 352.27 585.984 353.11C585.504 353.93 585.264 354.91 585.264 356.05C585.264 357.19 585.504 358.18 585.984 359.02C586.464 359.86 587.114 360.51 587.934 360.97C588.754 361.43 589.684 361.66 590.724 361.66C591.584 361.66 592.384 361.48 593.124 361.12C593.884 360.74 594.524 360.16 595.044 359.38L597.234 360.76C596.614 361.86 595.734 362.71 594.594 363.31C593.474 363.89 592.194 364.18 590.754 364.18ZM607.808 364.18C606.108 364.18 604.608 363.83 603.308 363.13C602.028 362.43 601.028 361.47 600.308 360.25C599.608 359.03 599.258 357.63 599.258 356.05C599.258 354.47 599.598 353.07 600.278 351.85C600.978 350.63 601.928 349.68 603.128 349C604.348 348.3 605.718 347.95 607.238 347.95C608.778 347.95 610.138 348.29 611.318 348.97C612.498 349.65 613.418 350.61 614.078 351.85C614.758 353.07 615.098 354.5 615.098 356.14C615.098 356.26 615.088 356.4 615.068 356.56C615.068 356.72 615.058 356.87 615.038 357.01H601.508V354.94H613.538L612.368 355.66C612.388 354.64 612.178 353.73 611.738 352.93C611.298 352.13 610.688 351.51 609.908 351.07C609.148 350.61 608.258 350.38 607.238 350.38C606.238 350.38 605.348 350.61 604.568 351.07C603.788 351.51 603.178 352.14 602.738 352.96C602.298 353.76 602.078 354.68 602.078 355.72V356.2C602.078 357.26 602.318 358.21 602.798 359.05C603.298 359.87 603.988 360.51 604.868 360.97C605.748 361.43 606.758 361.66 607.898 361.66C608.838 361.66 609.688 361.5 610.448 361.18C611.228 360.86 611.908 360.38 612.488 359.74L614.078 361.6C613.358 362.44 612.458 363.08 611.378 363.52C610.318 363.96 609.128 364.18 607.808 364.18ZM619.566 364V348.1H622.446V359.68L632.196 348.1H634.806V364H631.926V352.42L622.206 364H619.566ZM627.006 346.03C625.546 346.03 624.396 345.68 623.556 344.98C622.736 344.26 622.316 343.23 622.296 341.89H624.246C624.266 342.65 624.516 343.25 624.996 343.69C625.496 344.13 626.156 344.35 626.976 344.35C627.796 344.35 628.456 344.13 628.956 343.69C629.456 343.25 629.716 342.65 629.736 341.89H631.746C631.726 343.23 631.296 344.26 630.456 344.98C629.616 345.68 628.466 346.03 627.006 346.03ZM648.933 364V343H657.123C658.963 343 660.533 343.29 661.833 343.87C663.133 344.45 664.133 345.29 664.833 346.39C665.533 347.49 665.883 348.8 665.883 350.32C665.883 351.84 665.533 353.15 664.833 354.25C664.133 355.33 663.133 356.17 661.833 356.77C660.533 357.35 658.963 357.64 657.123 357.64H650.583L651.933 356.23V364H648.933ZM651.933 356.53L650.583 355.03H657.033C658.953 355.03 660.403 354.62 661.383 353.8C662.383 352.98 662.883 351.82 662.883 350.32C662.883 348.82 662.383 347.66 661.383 346.84C660.403 346.02 658.953 345.61 657.033 345.61H650.583L651.933 344.11V356.53ZM676.328 364.18C674.728 364.18 673.308 363.83 672.068 363.13C670.828 362.43 669.848 361.47 669.128 360.25C668.408 359.01 668.048 357.61 668.048 356.05C668.048 354.47 668.408 353.07 669.128 351.85C669.848 350.63 670.828 349.68 672.068 349C673.308 348.3 674.728 347.95 676.328 347.95C677.908 347.95 679.318 348.3 680.558 349C681.818 349.68 682.798 350.63 683.498 351.85C684.218 353.05 684.578 354.45 684.578 356.05C684.578 357.63 684.218 359.03 683.498 360.25C682.798 361.47 681.818 362.43 680.558 363.13C679.318 363.83 677.908 364.18 676.328 364.18ZM676.328 361.66C677.348 361.66 678.258 361.43 679.058 360.97C679.878 360.51 680.518 359.86 680.978 359.02C681.438 358.16 681.668 357.17 681.668 356.05C681.668 354.91 681.438 353.93 680.978 353.11C680.518 352.27 679.878 351.62 679.058 351.16C678.258 350.7 677.348 350.47 676.328 350.47C675.308 350.47 674.398 350.7 673.598 351.16C672.798 351.62 672.158 352.27 671.678 353.11C671.198 353.93 670.958 354.91 670.958 356.05C670.958 357.17 671.198 358.16 671.678 359.02C672.158 359.86 672.798 360.51 673.598 360.97C674.398 361.43 675.308 361.66 676.328 361.66ZM695.666 364.18C694.046 364.18 692.596 363.83 691.316 363.13C690.056 362.43 689.066 361.47 688.346 360.25C687.626 359.03 687.266 357.63 687.266 356.05C687.266 354.47 687.626 353.07 688.346 351.85C689.066 350.63 690.056 349.68 691.316 349C692.596 348.3 694.046 347.95 695.666 347.95C697.106 347.95 698.386 348.24 699.506 348.82C700.646 349.38 701.526 350.22 702.146 351.34L699.956 352.75C699.436 351.97 698.796 351.4 698.036 351.04C697.296 350.66 696.496 350.47 695.636 350.47C694.596 350.47 693.666 350.7 692.846 351.16C692.026 351.62 691.376 352.27 690.896 353.11C690.416 353.93 690.176 354.91 690.176 356.05C690.176 357.19 690.416 358.18 690.896 359.02C691.376 359.86 692.026 360.51 692.846 360.97C693.666 361.43 694.596 361.66 695.636 361.66C696.496 361.66 697.296 361.48 698.036 361.12C698.796 360.74 699.436 360.16 699.956 359.38L702.146 360.76C701.526 361.86 700.646 362.71 699.506 363.31C698.386 363.89 697.106 364.18 695.666 364.18ZM712.571 364.18C710.951 364.18 709.501 363.83 708.221 363.13C706.961 362.43 705.971 361.47 705.251 360.25C704.531 359.03 704.171 357.63 704.171 356.05C704.171 354.47 704.531 353.07 705.251 351.85C705.971 350.63 706.961 349.68 708.221 349C709.501 348.3 710.951 347.95 712.571 347.95C714.011 347.95 715.291 348.24 716.411 348.82C717.551 349.38 718.431 350.22 719.051 351.34L716.861 352.75C716.341 351.97 715.701 351.4 714.941 351.04C714.201 350.66 713.401 350.47 712.541 350.47C711.501 350.47 710.571 350.7 709.751 351.16C708.931 351.62 708.281 352.27 707.801 353.11C707.321 353.93 707.081 354.91 707.081 356.05C707.081 357.19 707.321 358.18 707.801 359.02C708.281 359.86 708.931 360.51 709.751 360.97C710.571 361.43 711.501 361.66 712.541 361.66C713.401 361.66 714.201 361.48 714.941 361.12C715.701 360.74 716.341 360.16 716.861 359.38L719.051 360.76C718.431 361.86 717.551 362.71 716.411 363.31C715.291 363.89 714.011 364.18 712.571 364.18ZM722.779 364V348.1H725.659V359.68L735.409 348.1H738.019V364H735.139V352.42L725.419 364H722.779ZM743.609 364V348.1H746.489V359.68L756.239 348.1H758.849V364H755.969V352.42L746.249 364H743.609Z" fill="#F5F5F5"/>
</svg>
