<svg width="33" height="22" viewBox="0 0 33 22" fill="none" xmlns="http://www.w3.org/2000/svg">
<path d="M19.8354 10.5775L31.2597 20.3455C31.8394 19.6023 32.1542 18.6866 32.1545 17.7442V4.25689C32.1547 3.1133 31.6931 2.01801 30.8744 1.21973L19.8354 10.5775Z" fill="#0060E0"/>
<path d="M16.0774 12.2791C14.8457 12.2725 13.6622 11.7993 12.7654 10.9552L1.4624 20.9462C2.23502 21.6252 3.22858 21.9997 4.25709 22H27.8986C29.0188 22.0005 30.0936 21.5577 30.8884 20.7684L19.3997 10.9463C18.5011 11.7955 17.3139 12.2717 16.0777 12.2788L16.0774 12.2791Z" fill="#0060E0"/>
<path d="M12.3304 10.5864L1.28007 1.21875C0.461354 2.01709 -0.000257776 3.11233 1.07994e-07 4.25591V17.7432C0.000251931 18.7761 0.378012 19.773 1.06229 20.5469L12.3304 10.5864Z" fill="#0060E0"/>
<path d="M27.8983 0H4.2568C3.34087 0.00100736 2.45014 0.299184 1.71826 0.849469L13.343 10.7064C14.1053 11.3575 15.0749 11.7151 16.0772 11.7151C17.0796 11.7151 18.0491 11.3575 18.8114 10.7064L30.4388 0.849469C29.7062 0.298694 28.815 0.000515767 27.8983 0Z" fill="#0060E0"/>
</svg>
