<svg width="373" height="82" viewBox="0 0 373 82" fill="none" xmlns="http://www.w3.org/2000/svg">
<circle cx="41" cy="41" r="41" fill="white" fill-opacity="0.54"/>
<path d="M39.292 53V30.6L41.742 33.05H34.392V28.5H44.962V53H39.292Z" fill="#3378D3"/>
<circle cx="138" cy="41" r="41" fill="white" fill-opacity="0.54"/>
<path d="M129.333 53V49.325L138.783 40.4C139.529 39.7233 140.078 39.1167 140.428 38.58C140.778 38.0433 141.011 37.5533 141.128 37.11C141.268 36.6667 141.338 36.2583 141.338 35.885C141.338 34.905 140.999 34.1583 140.323 33.645C139.669 33.1083 138.701 32.84 137.418 32.84C136.391 32.84 135.434 33.0383 134.548 33.435C133.684 33.8317 132.949 34.45 132.343 35.29L128.213 32.63C129.146 31.23 130.453 30.1217 132.133 29.305C133.813 28.4883 135.749 28.08 137.943 28.08C139.763 28.08 141.349 28.3833 142.703 28.99C144.079 29.5733 145.141 30.4017 145.888 31.475C146.658 32.5483 147.043 33.8317 147.043 35.325C147.043 36.1183 146.938 36.9117 146.728 37.705C146.541 38.475 146.144 39.2917 145.538 40.155C144.954 41.0183 144.091 41.9867 142.948 43.06L135.108 50.445L134.023 48.38H147.848V53H129.333Z" fill="#3378D3"/>
<circle cx="332" cy="41" r="41" fill="white" fill-opacity="0.54"/>
<path d="M321.52 47.855V44.04L333.07 28.5H339.02L327.715 44.04L324.95 43.235H344.235V47.855H321.52ZM334.715 53V47.855L334.89 43.235V38.65H340.245V53H334.715Z" fill="#3378D3"/>
<circle cx="235" cy="41" r="41" fill="white" fill-opacity="0.54"/>
<path d="M234.454 53.42C232.75 53.42 231.059 53.1983 229.379 52.755C227.699 52.2883 226.275 51.635 225.109 50.795L227.314 46.455C228.247 47.1317 229.332 47.6683 230.569 48.065C231.805 48.4617 233.054 48.66 234.314 48.66C235.737 48.66 236.857 48.38 237.674 47.82C238.49 47.26 238.899 46.49 238.899 45.51C238.899 44.5767 238.537 43.8417 237.814 43.305C237.09 42.7683 235.924 42.5 234.314 42.5H231.724V38.755L238.549 31.02L239.179 33.05H226.334V28.5H243.484V32.175L236.694 39.91L233.824 38.265H235.469C238.479 38.265 240.754 38.9417 242.294 40.295C243.834 41.6483 244.604 43.3867 244.604 45.51C244.604 46.8867 244.242 48.1817 243.519 49.395C242.795 50.585 241.687 51.5533 240.194 52.3C238.7 53.0467 236.787 53.42 234.454 53.42Z" fill="#3378D3"/>
</svg>
