<svg width="317" height="183" viewBox="0 0 317 183" fill="none" xmlns="http://www.w3.org/2000/svg">
<path fill-rule="evenodd" clip-rule="evenodd" d="M90.6647 83.1096C90.6647 103.975 73.751 120.889 52.8881 120.889C32.0226 120.889 15.1089 103.975 15.1089 83.1096C15.1089 62.2467 32.0226 45.333 52.8881 45.333C73.751 45.333 90.6647 62.2467 90.6647 83.1096Z" fill="#CFCFCF"/>
<path fill-rule="evenodd" clip-rule="evenodd" d="M196.439 37.7766C196.439 58.6421 179.526 75.5558 158.663 75.5558C137.8 75.5558 120.886 58.6421 120.886 37.7766C120.886 16.9137 137.8 0 158.663 0C179.526 0 196.439 16.9137 196.439 37.7766Z" fill="#CFCFCF"/>
<path fill-rule="evenodd" clip-rule="evenodd" d="M302.221 83.1096C302.221 103.975 285.307 120.889 264.442 120.889C243.579 120.889 226.665 103.975 226.665 83.1096C226.665 62.2467 243.579 45.333 264.442 45.333C285.307 45.333 302.221 62.2467 302.221 83.1096Z" fill="#CFCFCF"/>
<path fill-rule="evenodd" clip-rule="evenodd" d="M226.663 143.558V219.108C226.663 221.112 225.869 223.037 224.45 224.451C223.036 225.87 221.111 226.665 219.107 226.665H98.2233C96.2198 226.665 94.2947 225.87 92.8805 224.451C91.4614 223.037 90.667 221.112 90.667 219.108V143.558C90.667 114.347 114.345 90.6685 143.556 90.6685H173.777C202.987 90.6685 226.666 114.347 226.666 143.558H226.663Z" fill="#CFCFCF"/>
<path fill-rule="evenodd" clip-rule="evenodd" d="M75.8796 136.836C73.312 136.284 70.6658 136.003 67.9994 136.003H37.7766C27.7587 136.003 18.1481 139.985 11.0599 147.063C3.98153 154.152 0 163.762 0 173.78V219.113C0 223.285 3.38482 226.669 7.55636 226.669H76.851C75.9985 224.266 75.5533 221.714 75.5533 219.113V143.562C75.5533 141.296 75.6646 139.052 75.8771 136.838L75.8796 136.836Z" fill="#CFCFCF"/>
<path fill-rule="evenodd" clip-rule="evenodd" d="M240.477 226.666H309.772C313.943 226.666 317.328 223.281 317.328 219.11V173.777C317.328 163.759 313.346 154.148 306.268 147.06C299.18 139.982 289.57 136 279.552 136H249.329C246.662 136 244.016 136.281 241.449 136.832C241.661 139.046 241.772 141.29 241.772 143.556V219.107C241.772 221.708 241.327 224.26 240.475 226.663L240.477 226.666Z" fill="#CFCFCF"/>
</svg>
