<svg width="20" height="25" viewBox="0 0 20 25" fill="none" xmlns="http://www.w3.org/2000/svg">
<path fill-rule="evenodd" clip-rule="evenodd" d="M11.702 18.5629C12.678 17.8172 13.8064 17.0403 14.8128 17.5685C16.1548 18.2832 17.4966 18.9978 18.8386 19.6815C19.9366 20.2719 20.3331 20.9244 19.6927 22.0742C18.6863 23.9388 16.0328 25.4614 14.02 24.871C5.29754 22.354 -0.619455 13.9327 0.0518063 4.54872C0.204379 2.4357 2.52221 0.384868 4.56585 0.0427732C5.84681 -0.174717 6.33478 0.446733 6.4872 1.68963C6.67022 3.21224 6.85324 4.76603 7.03625 6.28881C7.18883 7.4385 6.09071 8.2464 5.0843 8.93005C2.64433 10.6701 9.26258 20.3033 11.7023 18.563L11.702 18.5629Z" fill="#F5F5F5"/>
</svg>
