<svg width="26" height="32" viewBox="0 0 26 32" fill="none" xmlns="http://www.w3.org/2000/svg">
<path fill-rule="evenodd" clip-rule="evenodd" d="M15.2126 23.7605C16.4813 22.806 17.9483 21.8115 19.2566 22.4877C21.0012 23.4025 22.7456 24.3172 24.4902 25.1923C25.9175 25.948 26.433 26.7832 25.6005 28.255C24.2921 30.6416 20.8427 32.5906 18.226 31.8348C6.8868 28.6131 -0.805292 17.8338 0.0673482 5.82236C0.265693 3.11769 3.27887 0.492631 5.93561 0.0547497C7.60085 -0.223637 8.23521 0.571819 8.43336 2.16272C8.67129 4.11166 8.90921 6.10051 9.14713 8.04968C9.34548 9.52128 7.91792 10.5554 6.60959 11.4305C3.43763 13.6578 12.0414 25.9882 15.213 23.7606L15.2126 23.7605Z" fill="#0060E0"/>
</svg>
