<svg width="26" height="37" viewBox="0 0 26 37" fill="none" xmlns="http://www.w3.org/2000/svg">
<path d="M13 0C6.37296 0 1 5.27138 1 11.7743C1 18.6031 9.75679 27.3282 12.3096 29.7261C12.6985 30.0913 13.3009 30.0913 13.6904 29.7261C16.2427 27.3281 25 18.6032 25 11.7743C24.9997 5.27115 19.627 0 13 0H13ZM13 15.7453C10.7654 15.7453 8.95416 13.968 8.95416 11.7753C8.95416 9.58251 10.7654 7.80522 13 7.80522C15.2347 7.80522 17.0459 9.58251 17.0459 11.7753C17.0459 13.968 15.2347 15.7453 13 15.7453Z" fill="#0060E0"/>
<path d="M19.8016 26C19.1645 26.7503 18.5378 27.4529 17.9347 28.1016C19.1809 28.6573 19.9527 29.4211 19.9527 30.2651C19.9527 31.9625 16.8398 33.3389 13.0002 33.3389C9.16052 33.3389 6.04761 31.9628 6.04761 30.2651C6.04761 29.4212 6.81945 28.6574 8.06566 28.1016C7.46257 27.4528 6.83587 26.7506 6.19869 26C2.48429 27.0464 5.12684e-08 28.917 5.12684e-08 31.0573C-0.000630751 34.3395 5.81982 37 12.9996 37C20.1794 37 26 34.3396 26 31.0573C26 28.9166 23.5157 27.0461 19.8013 26H19.8016Z" fill="#0060E0"/>
</svg>
